<?xml version="1.0" encoding="utf-8"?>
<!-- Generator: Adobe Illustrator 27.8.1, SVG Export Plug-In . SVG Version: 6.00 Build 0)  -->
<svg version="1.1" id="Layer_1" xmlns="http://www.w3.org/2000/svg" xmlns:xlink="http://www.w3.org/1999/xlink" x="0px" y="0px"
	 width="283.4646px" height="283.4646px" viewBox="0 0 283.4646 283.4646" style="enable-background:new 0 0 283.4646 283.4646;"
	 xml:space="preserve">
<path d="M105.3985,162.7427l1.835-13.7266l5.3297-2.8018c-0.5999-0.8666-1.1647-1.6379-1.6929-2.3126l-6.252,3.2863l-2.21,16.5312
	l0.4561,0.4893c2.667,2.8623,6.3564,4.376,10.0986,4.375c2.1885,0,4.3945-0.5166,6.4248-1.584
	c0.2407-0.1266,0.4641-0.2725,0.6942-0.4111c-0.1613-1.0159-0.3403-2.0307-0.5427-3.0426
	c-0.4606,0.3451-0.9445,0.6677-1.4698,0.9439C113.8194,166.7251,108.8106,166.0093,105.3985,162.7427z"/>
<path d="M194.164,136.5174c-0.4248,0.4482-0.9287,0.834-1.5039,1.1367c-0.2053,0.1082-0.4149,0.1988-0.6264,0.2801
	c-2.2159,10.8515-11.5957,19.1259-22.9659,19.6476c-0.2941,0.9446-0.5631,1.8961-0.805,2.8544
	c13.2744-0.1609,24.3046-9.7936,26.6403-22.4388c-0.1135-0.17-0.2403-0.3289-0.3367-0.5123
	C194.4004,137.1698,194.2666,136.8465,194.164,136.5174z"/>
<path d="M171.6957,150.9782c-0.5058,1.0101-0.9593,2.04-1.3776,3.082c8.8513-0.9995,16.0505-7.472,18.1612-15.9397
	c-0.9595-0.2542-1.8525-0.748-2.5781-1.4581C184.4477,143.8193,178.8377,149.4819,171.6957,150.9782z"/>
<path d="M81.8643,158.1265c2.4678,4.6934,7.2471,7.3965,12.2246,7.3965c1.9619,0,3.9561-0.4209,5.8506-1.3057l0.6973-0.3262
	l2.3447-16.8652l-11.8593-5.9441l-4.664-0.8796C80.5812,144.0949,78.5442,151.8095,81.8643,158.1265z M99.8936,148.649
	l-1.8486,13.2959c-5.1641,2.002-11.0557-0.1602-13.6709-5.1367c-2.6162-4.9775-1.0576-11.0547,3.5186-14.1738L99.8936,148.649z"/>
<path d="M94.9873,120.5855c0.0389-0.0204,0.0796-0.0351,0.1186-0.0552c-0.2861-0.929-0.5641-1.843-0.834-2.7348
	c-0.2001,0.0963-0.4053,0.1764-0.6029,0.2802c-4.9916,2.6241-8.3922,7.3069-9.4858,12.6085
	c0.6376,1.2217,1.4536,2.4075,2.4545,3.5999C86.6792,128.5982,89.8318,123.2948,94.9873,120.5855z"/>
<path d="M102.2364,166.1304l-0.6982-0.6611l-0.8721,0.4053c-7.5615,3.5068-16.5244,0.4766-20.4033-6.9043
	c-3.4732-6.6056-1.757-14.5795,3.7845-19.2228c-1.4016-0.265-2.4949-0.4662-3.5053-0.5662
	c-5.1801,5.5982-6.5155,14.0194-2.789,21.1074c4.4365,8.4404,14.498,12.0674,23.2393,8.5332
	c3.4014,2.9023,7.6641,4.4102,11.9727,4.4102c2.6382,0,5.2913-0.571,7.776-1.7268c-0.1097-0.992-0.2361-1.9878-0.3729-2.9845
	c-0.0473,0.0255-0.0898,0.0563-0.1375,0.0814C114.3174,171.7105,107.086,170.7163,102.2364,166.1304z"/>
<path d="M107.6056,140.3689l-3.8536,2.0252l-12.3467-6.2695c-0.046-0.2838-0.08-0.567-0.1039-0.8493
	c-0.0084-0.0988-0.009-0.1967-0.0146-0.2952c-0.0106-0.1831-0.0224-0.3661-0.0239-0.5482c-0.001-0.1196,0.006-0.2379,0.0089-0.3569
	c0.0038-0.1584,0.0058-0.3171,0.0165-0.4744c0.0089-0.1309,0.0252-0.2601,0.0388-0.3901c0.015-0.1435,0.0282-0.2872,0.0488-0.4295
	c0.0199-0.1377,0.0466-0.2734,0.0718-0.4099c0.0242-0.1309,0.0469-0.262,0.0759-0.3916c0.0318-0.1429,0.0697-0.2836,0.1072-0.4247
	c0.032-0.1201,0.0631-0.2404,0.0992-0.3591c0.0444-0.1464,0.0944-0.2906,0.1449-0.4348c0.0382-0.1088,0.076-0.2175,0.1177-0.3249
	c0.058-0.15,0.121-0.2975,0.1857-0.4446c0.0428-0.0974,0.0859-0.1946,0.1317-0.2907c0.0721-0.1518,0.1487-0.3011,0.228-0.4495
	c0.0464-0.0866,0.0934-0.1728,0.1422-0.2582c0.0873-0.1531,0.1783-0.3037,0.2733-0.4526c0.048-0.0753,0.0972-0.1498,0.1472-0.224
	c0.1034-0.1536,0.2101-0.3047,0.3216-0.4533c0.0481-0.064,0.0977-0.1271,0.1473-0.1901c0.1203-0.1531,0.2437-0.3038,0.3727-0.4509
	c0.0464-0.0529,0.0945-0.1044,0.142-0.1565c0.1385-0.152,0.2802-0.3014,0.428-0.4462c0.0425-0.0416,0.0869-0.0817,0.1302-0.1227
	c0.1578-0.1497,0.3188-0.2964,0.4866-0.4376c0.0367-0.0309,0.0753-0.0601,0.1124-0.0906c0.1796-0.147,0.3624-0.2908,0.5527-0.4277
	c0.0236-0.017,0.0485-0.0327,0.0723-0.0495c0.2068-0.1464,0.418-0.2882,0.637-0.4221c0.0001-0.0001,0.0002-0.0002,0.0003-0.0002
	c-0.29-0.9445-0.5767-1.8748-0.8552-2.7762c-2.2349,1.2185-4.0283,2.9946-5.2668,5.0837c-0.0026,0.0043-0.0048,0.0089-0.0073,0.0132
	c-0.1734,0.2932-0.3361,0.5924-0.4874,0.8973c-0.0096,0.0194-0.0175,0.0397-0.027,0.0592c-0.1424,0.2905-0.2762,0.5851-0.398,0.8848
	c-0.0168,0.0415-0.03,0.0844-0.0465,0.126c-0.1105,0.2797-0.2153,0.5618-0.3076,0.8483c-0.022,0.0685-0.0381,0.1388-0.0591,0.2076
	c-0.08,0.2627-0.1576,0.5262-0.2219,0.7937c-0.0233,0.0969-0.0386,0.1958-0.0597,0.2932c-0.0528,0.2425-0.1062,0.4848-0.1459,0.7304
	c-0.0209,0.1298-0.0317,0.2617-0.0489,0.3922c-0.0286,0.2164-0.0608,0.4324-0.0791,0.6506
	c-0.0139,0.1652-0.0153,0.3319-0.0231,0.4979c-0.0089,0.1863-0.0236,0.3718-0.0248,0.5589
	c-0.0014,0.2124,0.0117,0.426,0.0203,0.6392c0.0057,0.1428,0.0039,0.285,0.0142,0.428c0.0256,0.357,0.065,0.7147,0.1192,1.0723
	l2.4202,2.6378l12.7563,6.4782l5.9178-3.1111C108.9244,141.5959,108.2353,140.9168,107.6056,140.3689z"/>
<path d="M126.3257,140.0089l0.9677,5.0222l5.1613,2.4516C131.9386,142.9666,130.7127,139.6117,126.3257,140.0089z"/>
<path d="M159.701,140.0179c-3.3143,0.3517-4.3427,3.4443-4.8021,7.4648l5.1613-2.4516l0.6666-3.4594
	c-0.3322-0.364-0.636-0.756-0.8713-1.2037C159.7952,140.2534,159.7529,140.1346,159.701,140.0179z"/>
<path d="M180.0132,117.9038l1.3992,2.6613c0.85-0.8942,1.6625-1.8617,2.4269-2.8878l-2.9106-0.837
	C180.6341,117.2036,180.3252,117.555,180.0132,117.9038z"/>
<path d="M170.529,122.8516c0.035,0.0102,0.0708,0.0143,0.1058,0.0251c1.2587,0.3912,2.303,1.1975,3.0368,2.2687
	c1.0635-0.2743,2.1249-0.6436,3.1494-1.1306l-1.332-2.5338C174.0464,122.152,172.3744,122.6138,170.529,122.8516z"/>
<path d="M185.6003,108.7954c-0.3986,1.0316-0.8695,2.0633-1.4088,3.0844l2.7505,0.791c0.9603-1.8959,1.7261-3.8589,2.2487-5.8067
	L185.6003,108.7954z"/>
<path d="M108.6182,119.565c-3.6687-3.4665-6.5776-8.3428-7.9133-12.9604l-3.3858-2.1185
	c0.7706,4.8547,3.2927,10.1532,6.8351,14.4327c0.6625,0.8003,1.36,1.5634,2.0895,2.2823c0.1429,0.1409,0.282,0.2872,0.4272,0.4244
	c1.6142,1.5254,3.5306,2.5279,5.4975,3.1747c0.0421,0.0139,0.0843,0.0264,0.1264,0.0399l0.3804-0.1011l0.7443-1.264l0.6356-1.0794
	C111.8494,121.814,109.9867,120.8585,108.6182,119.565z"/>
<path d="M133.7334,111.9365c-0.316-2.0065-0.9167-4.0849-1.8201-6.1473c-0.1064-0.2432-0.2178-0.4848-0.3325-0.7271
	c-0.861-1.8195-1.9468-3.6112-3.2712-5.3079c-1.3289-1.7026-2.8846-3.3113-4.6827-4.7499c-0.3793-0.3035-0.7788-0.5939-1.1885-0.876
	c-0.2171-0.1488-0.4459-0.2898-0.6718-0.4328c-0.187-0.1191-0.3722-0.2396-0.564-0.354c-0.3141-0.1863-0.6371-0.3649-0.9646-0.5391
	c-0.0995-0.0533-0.1981-0.1074-0.2986-0.1595c-0.3971-0.2042-0.8013-0.4007-1.2142-0.5858c-0.0177-0.0079-0.0353-0.016-0.053-0.0239
	c-2.2905-1.0277-4.7566-1.742-7.1546-2.0124l-0.0026,0.0231c-0.8506-0.0979-1.6953-0.1337-2.5296-0.1226
	c-1.6198,0.0215-3.192,0.2478-4.6389,0.7403l3.4072,2.1462c0.373-0.0389,0.7514-0.0647,1.1357-0.0735
	c0.9692-0.0222,1.9703,0.0552,2.9775,0.2081c0.1434,0.0215,0.2866,0.0428,0.4303,0.0677c0.3022,0.0527,0.6046,0.1102,0.9067,0.1769
	c0.1015,0.0225,0.2028,0.0497,0.3042,0.0739c0.4976,0.1177,0.9924,0.2552,1.4838,0.4083c0.2259,0.071,0.4517,0.1417,0.6757,0.2199
	c0.2006,0.0695,0.4,0.1417,0.5984,0.2167c0.433,0.165,0.8644,0.3351,1.2856,0.5251c0.0186,0.0083,0.0369,0.0165,0.0554,0.0249
	c0.353,0.1605,0.6999,0.3281,1.0414,0.5055c0.085,0.0438,0.1677,0.0895,0.2518,0.1343c0.2858,0.1533,0.5685,0.3085,0.8441,0.4731
	c0.1636,0.0971,0.3197,0.1996,0.4789,0.3004c0.1996,0.127,0.402,0.2509,0.5948,0.3836c0.3598,0.2466,0.7078,0.5007,1.0375,0.7643
	c1.8792,1.5035,3.4604,3.2274,4.7761,5.048c0.2977,0.4119,0.5841,0.8264,0.8528,1.2475c0.5818,0.9121,1.1093,1.8393,1.5547,2.7757
	c0.2325,0.4886,0.4397,0.9788,0.6349,1.4686c0.0128,0.0322,0.029,0.0643,0.0416,0.0965c0.2074,0.5269,0.3909,1.0527,0.555,1.5763
	c0.4261,1.3592,0.6956,2.6929,0.8292,3.9734c0.0918,0.8798,0.1245,1.7341,0.0776,2.5445c-0.1065,1.8405-0.5645,3.4727-1.3912,4.7344
	c-0.0005,0.0007-0.016,0.0201-0.0535,0.055c-0.1721,0.1803-0.549,0.4114-1.1114,0.6597c-0.3386,0.1495-0.7462,0.3043-1.2074,0.457
	l-0.9342,1.4661l-1.2896,2.0237c0.7516-0.1448,1.4957-0.3203,2.2073-0.5222c0.8608-0.2443,1.6716-0.528,2.3812-0.8494l0.0027,0.0059
	c0.1218-0.0548,0.2213-0.1119,0.3346-0.1675c0.0728-0.0357,0.1457-0.0715,0.2149-0.1077c0.1459-0.0764,0.2885-0.1539,0.4222-0.2339
	c0.0147-0.0088,0.0273-0.0178,0.0418-0.0266c0.2397-0.1454,0.4536-0.2976,0.6479-0.4543c0.0728-0.0596,0.1461-0.1191,0.2112-0.1799
	c0.062-0.0568,0.1209-0.1141,0.1763-0.1723c0.1205-0.1287,0.2336-0.2585,0.322-0.3932
	C133.8469,119.6571,134.3655,115.9504,133.7334,111.9365z"/>
<path d="M189.9385,122.3026l-1.7784-3.3829l-0.1335-0.0384c-0.2182,0.71-0.4368,1.4206-0.6653,2.1602
	c-0.2886,0.9332-0.5858,1.8979-0.8863,2.8775c0.1279,0.1862,0.2512,0.3771,0.3589,0.5818c0.4639,0.8818,0.6768,1.8301,0.665,2.7627
	c0.3325-0.1563,0.674-0.2703,1.0187-0.3586c0.0751-0.2377,0.149-0.4633,0.2255-0.714
	C189.1518,124.85,189.5507,123.5587,189.9385,122.3026z"/>
<path d="M184.1552,132.4579c-0.4979,0.233-1.015,0.3629-1.5348,0.4464c-0.7145,0.7932-1.4582,1.2347-2.3421,1.7516
	c-2.1768,1.2734-5.1572,3.0166-9.8096,9.9453c-7.2568,10.8076-8.2959,24.2402-9.1318,35.0342
	c-0.5859,7.5732-1.0918,14.1133-3.502,17.5947c-4.873,7.0391-9.1865,16.2891-11.4297,21.4414l-1.7383-5.2119l-0.8248-67.3472
	l-0.1548-8.3019l-0.0106-0.5706l-0.0319,1.7115l-0.1224,6.564l-1.033,67.799l-1.8625,5.3581
	c-2.2422-5.1523-6.5557-14.4023-11.4297-21.4424c-2.4092-3.4814-2.915-10.0215-3.501-17.5938
	c-0.3372-4.3541-0.7151-9.1392-1.5132-14.0067c-1.1804-7.1992-3.2891-14.5805-7.6186-21.0285
	c-1.1107-1.6541-2.1235-3.0056-3.0555-4.1328c-0.699-0.8454-1.3503-1.5595-1.9604-2.1717
	c-1.9838-1.9905-3.5269-2.8995-4.7937-3.6409c-2.2178-1.2969-3.5566-2.0801-5.7539-9.291c-0.1833-0.602-0.3635-1.1886-0.5432-1.7729
	c-0.2662-0.8661-0.5294-1.7195-0.7859-2.5493c-0.019-0.0616-0.0368-0.1197-0.0558-0.1811c-0.1822-0.59-0.3594-1.1655-0.5359-1.7395
	c-0.2834-0.9213-0.5594-1.8258-0.8255-2.7083c-1.5018-4.9808-2.7054-9.3707-3.3127-13.4151l-3.1041-1.9423
	c0.4675,4.8964,1.8778,10.1302,3.7068,16.1862c0.2664,0.882,0.54,1.782,0.8229,2.701c0.1779,0.5782,0.3546,1.153,0.5381,1.7469
	c0.0198,0.0643,0.0383,0.1246,0.0582,0.1891c0.2558,0.8269,0.5182,1.6777,0.7837,2.5411c0.1794,0.5835,0.3594,1.1694,0.5425,1.7704
	c2.4033,7.8877,4.1504,9.2256,7.0332,10.9111c1.0204,0.5971,2.1659,1.2677,3.5889,2.5801c0.6191,0.571,1.2946,1.2734,2.0316,2.1348
	c0.9683,1.1317,2.0452,2.5439,3.2673,4.3642c4.3688,6.5064,6.3541,14.1661,7.4327,21.5784
	c0.6105,4.1959,0.9335,8.3135,1.2265,12.0954c0.6172,7.9824,1.1504,14.877,3.9971,18.9883
	c6.792,9.8115,12.6924,24.5996,12.751,24.748l1.5898,4.0088l2.3086-8.7686l2.3066,8.7695l1.5908-4.0098
	c0.0586-0.1484,5.959-14.9365,12.751-24.748c2.8467-4.1113,3.3809-11.0059,3.998-18.9893
	c0.8105-10.4629,1.8184-23.4834,8.6592-33.6729c4.29-6.3896,6.8389-7.8809,8.8877-9.0791c1.1239-0.6573,2.0745-1.267,2.9596-2.2277
	C184.3253,134.1051,184.1451,133.2857,184.1552,132.4579z"/>
<path d="M189.6574,113.4516l2.3953,0.6888l0.2296,0.4368c0.4465-1.5341,0.8575-3.014,1.2241-4.4478l-2.0093-3.822
	C191.0188,108.5484,190.3921,110.9124,189.6574,113.4516z"/>
<path d="M129.7557,114.3129c-0.0004-0.0078,0.0002-0.0151-0.0002-0.0229c-0.024-0.4337-0.0681-0.88-0.1298-1.335
	c-0.0018-0.013-0.0019-0.0251-0.0037-0.0381c-0.0844-0.6119-0.2167-1.2452-0.3716-1.886l-6.6249,10.3958l-0.9795,1.537
	l-1.856,2.9125l-0.8847,1.3883l-1.288,2.0212l0.6582,2.4785l-0.6395,0.1699l-1.7467,0.4642l-1.4429,0.3835l-1.0176-3.8291
	l1.3392-0.3558l0.653-0.1735l0.7064-1.1998l0.0849-0.1442l0.7748-1.316l1.6153-2.7437l0.8337-1.4162l3.5494-6.0288l-12.8455-8.0379
	l-2.4162-1.5119l-2.3897-1.4954l-3.9582-2.4768l-0.3395-0.2125l-5.0595-3.166l-0.3557-0.2226l-19.5175-12.213l-0.5273,1.792
	c-0.1973,0.6699-4.8281,16.5078-5.0898,25.6191c-0.1992,6.9785,2.3477,14.1299,5.5625,15.6152
	c1.3105,0.6074,2.3271,0.3867,2.9521,0.0908c0.6377,2.0059,1.5732,3.8916,2.8408,5.7246c-2.0078-0.2793-3.7939-0.3037-6.3076,0.1836
	c0.0918-0.8896-0.0322-1.8623-0.5664-2.792c-0.1484-0.2578-0.3584-0.5967-0.6143-1.0098
	c-2.2607-3.6397-8.2656-13.3076-5.6533-24.0508c3.9961-16.4355-1.8271-28.1445-5.5078-33.5195
	c6.4297,1.043,19.4844,1.3125,32.5547-9.4326c6.0309-4.9568,13.4346-5.8084,18.7717-5.7231
	c1.0991-1.091,2.0972-2.0079,3.0414-2.6982c-5.6443-0.4296-15.5946-0.3589-23.6139,6.2319
	c-16.6855,13.7188-33.7344,8.042-33.9043,7.9844l-5.6709-1.9834l4.1885,4.3105c0.125,0.1289,12.4922,13.1602,7.3867,34.1602
	c-2.8936,11.8994,3.5674,22.3008,5.999,26.2168c0.2354,0.3779,0.4277,0.6885,0.5635,0.9248
	c0.6377,1.1104-0.3232,2.5283-0.3271,2.5342l-2.3027,3.2305l3.8291-1.04c3.6824-1.0012,5.5716-1.0485,8.113-0.6639
	c0.7975,0.1207,1.6574,0.2827,2.6594,0.4725l4.7471,0.8945l-2.8799-3.1396c-0.9645-1.0515-1.7794-2.1082-2.479-3.1831
	c-1.4198-2.1814-2.3249-4.4438-2.7632-6.9331l-1.1387-6.4678l-1.6299,6.3623c-0.0469,0.1826-0.2861,0.7197-0.5459,0.8428
	c-0.1406,0.0703-0.4082-0.0332-0.5527-0.0996c-1.4922-0.6904-4.1133-6.1357-3.918-12.9619
	c0.2002-6.999,3.2373-18.6445,4.4658-23.0957l12.7198,7.9593l1.2234,0.7656l2.9795,1.8643l1.2205,0.7637l0.3625,0.2268l0.8342,0.522
	l3.1175,1.9507l1.7355,1.086l1.8514,1.1584l2.3893,1.4951l2.4166,1.5121l10.5073,6.5748l-2.8623,4.8616l-0.7815,1.3274
	l-1.1002,1.8688l-0.4266,0.7245l-0.4036,0.6855l-0.321,0.0853l-0.8878,0.2359l-2.1362,0.5676
	c0.0009,0.001,0.0018,0.0023,0.0027,0.0032c-0.001-0.001-0.0019-0.0021-0.0029-0.0032l-0.2642,0.0702l2.4746,9.3076l0.7269-0.1931
	l2.8934-0.7686l1.8022-0.4788l3.8852-1.0322l-1.0664-4.0156l1.6624-2.6086l0.961-1.508l2.0574-3.2284l1.0991-1.7247l3.3141-5.2004
	C129.7801,115.1086,129.7774,114.7171,129.7557,114.3129z"/>
<path d="M127.8413,106.983c-0.002-0.0043-0.0035-0.0087-0.0055-0.0131c-0.3421-0.7377-0.7492-1.4734-1.1882-2.2047l-0.7823,1.1708
	l-12.02-7.5717l-2.4117-1.5192l-2.3851-1.5025l-1.6673-1.0504l-1.7047-1.0739l-2.9423-1.8535l-1.3735-0.8653l-3.6431-2.295
	l-1.2437-0.7834l-2.4324-1.5323l-1.1966-0.7538l-8.2591-5.2029c3.4746-3.04,12.6426-10.8359,18.8594-14.0566
	c2.2009-1.1401,4.3956-1.8629,6.3635-2.2768c0.651-0.6721,1.2792-1.3263,1.8674-1.9417c0.4424-0.4625,0.8642-0.9031,1.2734-1.3275
	c-3.2762,0.1429-7.2618,1.191-10.809,3.0283c-8.0918,4.1943-20.3428,15.2471-20.8604,15.7158l-1.3857,1.2539l27.643,17.4139
	l2.3843,1.5021l2.4124,1.5195l14.3552,9.042l1.4352-2.1482C128.0293,107.4322,127.9455,107.2082,127.8413,106.983z"/>
<path d="M188.295,77.4868c-3.2998-4.7568-6.2334-7.4229-8.8203-9.7744c-0.2151-0.1954-0.4167-0.3829-0.6262-0.5743
	c-0.7208-0.6586-1.4174-1.3043-2.0579-1.9614l0.0015-0.0014c-0.8584-0.8789-1.6621-1.7197-2.417-2.5078
	c-3.5664-3.7305-5.9229-6.1943-8.1074-6.6621c-0.233-0.0502-0.4714-0.0859-0.7161-0.1091
	c-1.7022-0.1608-3.7096,0.2998-6.3591,0.9069c-3.6973,0.8486-8.7607,2.0098-15.6738,2.0098c-0.0003,0-0.0006,0-0.0009,0
	c-0.0004,0-0.0007,0-0.001,0c-5.46,0-10.4365-1.0459-14.4355-1.8857c-1.9057-0.4014-3.5342-0.7413-4.9362-0.9225
	c-0.6365-0.0823-1.2299-0.1344-1.7751-0.1402c-0.5813-0.006-1.1128,0.0369-1.5992,0.1409c-0.2615,0.056-0.526,0.1443-0.7942,0.2562
	c-1.0615,0.443-2.1954,1.3245-3.4999,2.5463c-0.0975,0.0914-0.1906,0.173-0.2902,0.2682c-0.3484,0.3333-0.7094,0.6896-1.0851,1.0688
	c-0.0665,0.0671-0.1398,0.1438-0.2072,0.2123c-0.692,0.7029-1.426,1.4678-2.2288,2.3073c-0.1773,0.1853-0.3668,0.3828-0.5497,0.5737
	c-0.5121,0.5348-1.0435,1.0868-1.601,1.66c-0.0007,0.0001-0.0015,0.0003-0.0023,0.0005c-0.0909,0.0934-0.1757,0.1822-0.2679,0.2766
	c-0.8271,0.8486-1.7295,1.6689-2.6855,2.5371c-2.5869,2.3516-5.5205,5.0176-8.8203,9.7744
	c-0.5482,0.7905-1.056,1.5677-1.5352,2.3367c-1.0025,1.6091-1.8542,3.176-2.5698,4.7197l2.4168,1.5224
	c0.6791-1.5068,1.5028-3.0417,2.4839-4.6258c0.4751-0.7672,0.9846-1.5451,1.5343-2.3378c0.0003-0.0005,0.0007-0.0009,0.001-0.0013
	c3.1149-4.4902,5.9202-7.0409,8.3965-9.2906c0.9873-0.8975,1.9199-1.7461,2.8076-2.6543c0.8662-0.8877,1.6777-1.7363,2.4395-2.5332
	c0.0155-0.0162,0.0302-0.0315,0.0457-0.0477c0.3921-0.41,0.7746-0.8088,1.1498-1.1981c0.7661-0.7946,1.488-1.5266,2.1594-2.1727
	c0.3-0.2888,0.588-0.5559,0.8643-0.8029c0.0783-0.0701,0.1564-0.1395,0.2327-0.2059c0.5009-0.4352,0.9534-0.7805,1.3547-1.0267
	c0.1949-0.1196,0.3758-0.2112,0.5438-0.2778c0.1002-0.0397,0.2079-0.0947,0.298-0.114c0.1706-0.0363,0.3621-0.059,0.5724-0.07
	c0.5471-0.0289,1.2333,0.0287,2.007,0.1346c1.2979,0.1777,2.8604,0.5021,4.5602,0.8592c4.1267,0.8671,9.2621,1.9462,15.0167,1.9463
	c7.2328-0.0001,12.4777-1.2022,16.3066-2.0801c2.392-0.5487,4.3079-0.9838,5.5662-0.8275c0.0943,0.0117,0.1937,0.0187,0.2805,0.0374
	c1.332,0.2852,3.7969,2.8623,6.6504,5.8467c0.7617,0.7959,1.5732,1.6445,2.4385,2.5322c0.6567,0.6719,1.3478,1.3151,2.0576,1.9656
	c0.2497,0.2288,0.4931,0.4551,0.7501,0.6887c2.4766,2.25,5.2822,4.8008,8.3975,9.292c3.7748,5.4424,5.6969,10.151,6.3237,14.9073
	l2.6704-1.4059C194.1519,87.812,192.1015,82.9757,188.295,77.4868z"/>
<path d="M228.5879,110.9478c-0.5449-1.0371-1.4619-1.7998-2.5801-2.1475c-0.6514-0.2031-1.3262-0.251-1.9795-0.1475l-9.0771-17.2656
	l-10.7451-0.9668c-0.9531-0.1963-1.9404-0.0566-2.7998,0.3965l-4.8967,2.5779l-1.3411,0.7061l-2.7191,1.4314l-1.3164,0.6931
	l-0.5299,0.2789l-1.2953,0.682l-2.5645,1.35l-1.2524,0.6593l-28.1185,14.8031c-0.0068,0.0934-0.0225,0.1918-0.0276,0.2841
	c-0.0165,0.3032-0.0127,0.5923-0.0112,0.8831c0.0005,0.1309-0.0088,0.2687-0.0048,0.3969c0.0006,0.0182,0.0036,0.0344,0.0043,0.0526
	c0.02,0.5371,0.0811,1.0391,0.1628,1.5212l28.2318-14.8627l1.3896-0.7316l2.7766-1.4617l1.2031-0.6334l0.1786-0.0941l1.2349-0.6501
	l2.8596-1.5054l1.3989-0.7365l5.9577-3.1365c0.2891-0.1523,0.625-0.1943,0.9404-0.1211l1.6475,0.167l-8.5302,4.5877l-1.434,0.7712
	l-2.9363,1.5792l-1.0112,0.5438l-0.444,0.2388l-1.007,0.5416l-2.9247,1.573l-1.5158,0.8152l-27.565,14.8251l-0.0045,0.0024
	c0.1263,0.3198,0.2692,0.618,0.432,0.8874c0.1106,0.0837,0.2618,0.1697,0.4238,0.2558c0.4288,0.2278,1.0214,0.4584,1.7499,0.673
	l0.0651-0.035l1.9946-1.0728l0.5352,1.0186l-0.3635,0.6077l-0.7781,1.3008l-1.5311,2.5597l-0.7452,1.2458l-1.257,2.1014
	l3.3047,6.2871c-1.251,1.3252-1.5889,3.3525-0.6953,5.0547c0.7842,1.4902,2.3115,2.3438,3.8896,2.3438
	c0.6865,0,1.3838-0.1621,2.0332-0.5029c2.1387-1.126,2.9648-3.7822,1.8408-5.9219c-0.8945-1.7012-2.7529-2.5723-4.5596-2.293
	l-2.5635-4.8779l0.948-1.5855l0.7714-1.2902l1.2503-2.0911l1.0049,1.9111c-0.1097,0.1155-0.1904,0.2545-0.2866,0.3814
	c-0.3038,0.4006-0.5609,0.8378-0.7144,1.3325c-0.0007,0.0024-0.0007,0.0048-0.0015,0.0071c-0.345,1.116-0.2366,2.2998,0.3071,3.3347
	c0.5449,1.0371,1.4609,1.7998,2.5801,2.1475c1.1182,0.3477,2.3047,0.2373,3.3418-0.3057c1.0371-0.5449,1.7998-1.4619,2.1475-2.5801
	c0.3092-0.9953,0.2374-2.0381-0.1611-2.9868c-0.0496-0.118-0.0842-0.2403-0.1445-0.355c-0.1783-0.3395-0.409-0.6365-0.6611-0.9123
	c-0.5181-0.5667-1.1668-1.0013-1.9189-1.2352c-0.6523-0.2031-1.3252-0.251-1.9795-0.1475l-0.5577-1.0612l-0.7592-1.4443
	l-1.7798-3.3861l7.9707-4.2861l2.9716,5.6537l0.6562,1.2485l1.3349,2.5398l0.4416,0.8402c-0.2473,0.262-0.4479,0.5571-0.6214,0.8661
	c-0.7043,1.2537-0.7916,2.8228-0.0739,4.1876c1.126,2.1406,3.7822,2.9658,5.9229,1.8418c0.0737-0.0388,0.1333-0.0928,0.2039-0.1352
	c1.7416-1.0457,2.5229-3.1329,1.9403-5.0311c-0.0786-0.2562-0.1754-0.5099-0.3044-0.7556
	c-0.5449-1.0371-1.4609-1.7998-2.5801-2.1475c-0.6185-0.192-1.256-0.2402-1.8798-0.1573c-0.0331,0.0044-0.0667,0.0046-0.0997,0.0098
	l-0.6519-1.2402l-1.3815-2.6283l-0.6878-1.3085l-1.9078-3.6296l4.0239,1.1577l1.4557,0.4188l2.8482,0.8195l1.462,0.4206
	l2.2834,0.657l0.6689,0.1924l0.0322,0.0605h-0.001l1.3811,2.6277l0.9518,1.811l0.7256,1.3806l-0.8279,1.9649l-1.0851,2.5751
	c-0.8001-0.0657-1.601,0.0951-2.3325,0.4653c-0.0193,0.0098-0.0399,0.0158-0.0591,0.0259h-0.001
	c-1.8103,0.9531-2.6643,3.0013-2.2068,4.9059c0.0829,0.3455,0.1944,0.6874,0.367,1.016c0.0927,0.1763,0.2103,0.3294,0.3226,0.4875
	c0.6021,0.848,1.4584,1.431,2.4158,1.6906c1.0322,0.2798,2.1653,0.1984,3.1844-0.3363c0.126-0.0664,0.2344-0.1547,0.3521-0.2318
	c0.8496-0.5564,1.4881-1.3662,1.7935-2.3483c0.3477-1.1191,0.2393-2.3057-0.3057-3.3418c-0.2422-0.46-0.5566-0.8652-0.9287-1.2051
	l1.0195-2.4199l1.184,2.2525l1.4,2.6635c-0.4551,0.4805-0.7979,1.0625-1.001,1.7129c-0.0721,0.2321-0.1125,0.4679-0.1456,0.7038
	c-0.0082,0.1899-0.021,0.3786-0.0331,0.5676c-0.0059,0.7135,0.1431,1.4224,0.4844,2.0724c0.5459,1.0361,1.4619,1.7979,2.5801,2.1455
	c1.1211,0.3506,2.3086,0.2383,3.3418-0.3057c2.1406-1.125,2.9668-3.7812,1.8418-5.9229c-0.8955-1.7012-2.7578-2.5693-4.5586-2.291
	l-6.3461-12.0725l-0.0543-0.1033h0.001l-0.903-1.7171l-0.6439-1.2243l-1.7956-0.5165l-1.0703-0.3079l-0.5038-0.1449l-1.4315-0.4117
	l-2.7796-0.7996l-1.4022-0.4033l-4.4575-1.2822l6.8875-3.7044l1.7814-0.9581l3.3311-1.7916l0.8369-0.4501l0.797-0.4286
	l0.5341-0.2872l0.1449,0.2757l2.0815,3.9596l1.0113,1.9238l6.0562,11.5206c-0.4561,0.4805-0.7988,1.0635-1.001,1.7139
	c-0.3477,1.1191-0.2393,2.3057,0.3057,3.3438c1.126,2.1397,3.7812,2.9629,5.9219,1.8399c2.1406-1.125,2.9668-3.7813,1.8418-5.9229
	c-0.8945-1.7002-2.7588-2.5693-4.5586-2.292l-6.2969-11.9785l5.8965,0.5166l1.7041,3.2412
	c-0.4561,0.4805-0.7988,1.0635-1.001,1.7139c-0.3477,1.1191-0.2393,2.3057,0.3057,3.3418c0.5449,1.0371,1.4609,1.7998,2.5801,2.1475
	c1.1182,0.3477,2.3037,0.2383,3.3418-0.3057c1.0371-0.5449,1.7998-1.4609,2.1475-2.5801c0.3477-1.1182,0.2393-2.3047-0.3057-3.3428
	c-0.8945-1.7002-2.7607-2.5684-4.5586-2.292l-2.4248-4.6133l-8.9257-0.7808l-0.3282-0.0287l-0.8432-1.6042l-0.5992-1.14
	l0.8209-0.4415l1.5147-0.8146l13.5999-7.3142l2.9844,0.1689l0.8594,1.6357l-3.4346,7.5088l0.9785,1.8623
	c-1.252,1.3252-1.5908,3.3525-0.6963,5.0537c0.5449,1.0371,1.4619,1.7998,2.5801,2.1475c1.1172,0.3477,2.3066,0.2373,3.3418-0.3057
	c2.1406-1.125,2.9668-3.7812,1.8418-5.9219c-0.8955-1.7021-2.7588-2.5713-4.5586-2.293l-0.3311-0.6289l1.9453-4.2529l5.8037,11.0391
	c-0.4561,0.4805-0.7988,1.0625-1.001,1.7139c-0.3477,1.1182-0.2393,2.3047,0.3057,3.3418c1.125,2.1416,3.7822,2.9648,5.9219,1.8418
	c1.0371-0.5449,1.7998-1.4619,2.1475-2.5801C229.2412,113.1704,229.1328,111.9839,228.5879,110.9478z M164.2364,136.3199
	c0.3672-0.1934,0.7881-0.2334,1.1826-0.1084c0.3955,0.123,0.7197,0.3926,0.9121,0.7588c0.3975,0.7568,0.1055,1.6963-0.6504,2.0938
	c-0.7549,0.3994-1.6943,0.1055-2.0938-0.6504C163.1885,137.6568,163.4805,136.7173,164.2364,136.3199z M167.3985,127.98
	c0.0908-0.291,0.2817-0.5221,0.5119-0.7119c0.0818-0.0675,0.1508-0.1487,0.2469-0.1992h0.001
	c0.2256-0.1191,0.4707-0.1797,0.7188-0.1797c0.1543,0,0.3105,0.0234,0.4619,0.0713c0.1554,0.0483,0.2885,0.136,0.4182,0.2266
	c0.2004,0.14,0.3771,0.3103,0.4939,0.5332c0.1934,0.3662,0.2314,0.7852,0.1084,1.1807s-0.3926,0.7197-0.7588,0.9121
	c-0.7598,0.4004-1.6973,0.1055-2.0938-0.6504C167.3135,128.7954,167.2754,128.3755,167.3985,127.98z M180.9444,125.8521
	c0.7598-0.4004,1.6963-0.1055,2.0928,0.6504c0.3984,0.7568,0.1064,1.6963-0.6494,2.0938c-0.7578,0.3994-1.6973,0.1045-2.0938-0.6514
	C179.8955,127.189,180.1875,126.2495,180.9444,125.8521z M191.4063,133.0015c-0.123,0.3955-0.3916,0.7197-0.7578,0.9121
	c-0.5139,0.2712-1.1071,0.2173-1.5617-0.0767c-0.2166-0.14-0.4044-0.3298-0.532-0.5737c-0.3661-0.6955-0.1441-1.5401,0.4801-1.9816
	c0.0551-0.0389,0.1081-0.0799,0.1693-0.1121c0.7598-0.4004,1.6982-0.1045,2.0938,0.6514
	C191.4912,132.187,191.5293,132.606,191.4063,133.0015z M198.1885,134.3472c0.123-0.3955,0.3926-0.7188,0.7588-0.9111
	c0.2295-0.1211,0.4766-0.1787,0.7197-0.1787c0.5576,0,1.0977,0.3018,1.374,0.8281c0.3984,0.7568,0.1064,1.6963-0.6514,2.0938
	c-0.7559,0.3994-1.6953,0.1074-2.0928-0.6494C198.1035,135.1626,198.0655,134.7427,198.1885,134.3472z M202.7735,124.107
	c0.123-0.3955,0.3926-0.7197,0.7588-0.9121h0.001c0.2285-0.1211,0.4756-0.1787,0.7178-0.1787c0.5576,0,1.0977,0.3018,1.375,0.8291
	c0.3984,0.7568,0.1064,1.6963-0.6504,2.0938c-0.7559,0.3984-1.6973,0.1064-2.0938-0.6494
	C202.6885,124.9224,202.6504,124.5025,202.7735,124.107z M206.5869,114.5689c0.123-0.3955,0.3926-0.7197,0.7588-0.9121h0.001
	c0.2246-0.1191,0.4707-0.1787,0.7178-0.1787c0.1553,0,0.3105,0.0234,0.4629,0.0703c0.3955,0.123,0.7197,0.3926,0.9121,0.7588
	c0.3984,0.7568,0.1064,1.6963-0.6504,2.0938c-0.3682,0.1943-0.7871,0.2334-1.1826,0.1084c-0.3945-0.123-0.7188-0.3926-0.9111-0.7598
	C206.502,115.3833,206.4639,114.9644,206.5869,114.5689z M214.0576,106.7759c0.7588-0.4004,1.6963-0.1055,2.0928,0.6504
	c0.3984,0.7568,0.1064,1.6963-0.6514,2.0938c-0.3662,0.1934-0.7861,0.2334-1.1807,0.1084c-0.3955-0.123-0.7197-0.3926-0.9121-0.7598
	c-0.1934-0.3652-0.2314-0.7852-0.1084-1.1807S213.6905,106.9683,214.0576,106.7759z M226.1866,113.4478
	c-0.123,0.3955-0.3926,0.7197-0.7588,0.9121c-0.7598,0.3994-1.6982,0.1055-2.0938-0.6504
	c-0.3984-0.7568-0.1064-1.6963,0.6504-2.0938h0.001c0.2256-0.1191,0.4707-0.1797,0.7188-0.1797
	c0.1543,0,0.3105,0.0234,0.4619,0.0713c0.3955,0.123,0.7197,0.3926,0.9121,0.7598
	C226.2715,112.6333,226.3096,113.0523,226.1866,113.4478z"/>
<path d="M181.209,90.229c-5.4873-1.1982-12.8066,0.7598-17.8027,4.7568c-6.8135,5.451-10.2477,13.3012-10.3785,19.7282
	c-0.0624,2.9224,0.5574,5.5517,1.8531,7.5286v0.001c0.6461,0.986,2.2538,1.8039,4.1904,2.4106l0.0076-0.0126l1.3237-2.2126
	l0.0496-0.0829l0.022-0.0367l-0.0138,0.0074l0.0534-0.1915c-0.0081-0.0023-0.0165-0.0044-0.0246-0.0067l0.0041-0.0146
	c-0.6544-0.1826-1.1805-0.3656-1.618-0.5394c-0.8448-0.3356-1.3217-0.631-1.5203-0.7966c-0.0486-0.0405-0.085-0.075-0.1028-0.0985
	c-0.2281-0.3481-0.4241-0.728-0.5974-1.1284c-0.225-0.5199-0.3907-1.0904-0.5234-1.6861c-0.1059-0.4753-0.1827-0.9703-0.23-1.4858
	c-0.0181-0.1971-0.0491-0.3859-0.0587-0.5882c-0.0145-0.3177-0.0036-0.6494,0.0029-0.9785
	c0.0107-0.5436,0.0469-1.0986,0.1149-1.6677c0.6315-5.2852,3.7164-11.5161,9.2174-15.9176c4.374-3.5,10.7168-5.2266,15.4277-4.2002
	c2.6371,0.5743,4.5203,1.9444,5.5982,4.0685l0.0083-0.0042l2.5229-1.2712l0.0083-0.0042
	C187.2837,92.9134,184.6786,90.9854,181.209,90.229z"/>
<g>
	<path d="M107.5723,80.3833c-0.3643,0-0.6851,0.084-0.9536,0.2505c-0.1978,0.1226-0.3667,0.2896-0.5039,0.4971v-2.7285h-0.9883
		v7.6792h0.9883v-3.1372c0-0.5347,0.1035-0.9487,0.3071-1.23c0.2002-0.2788,0.48-0.4141,0.8555-0.4141
		c0.3257,0,0.5562,0.1025,0.7061,0.314c0.1533,0.2158,0.231,0.564,0.231,1.0347v3.4326h0.9932v-3.4326
		c0-0.7471-0.1353-1.3164-0.4019-1.6909C108.5332,80.5767,108.1182,80.3833,107.5723,80.3833z"/>
	<path d="M114.5361,81.2075c-0.1943-0.2749-0.4517-0.4834-0.7637-0.6196c-0.3096-0.1357-0.687-0.2046-1.1211-0.2046
		c-0.2734,0-0.5596,0.0322-0.8501,0.0962c-0.29,0.0635-0.5967,0.1602-0.9116,0.2866l-0.0444,0.0181v1.0649l0.1074-0.0649
		c0.2734-0.1646,0.5576-0.2905,0.8438-0.3755c0.2866-0.085,0.5742-0.1279,0.855-0.1279c0.4302,0,0.7451,0.0923,0.9355,0.2734
		s0.2886,0.481,0.2915,0.8911v0.0698h-1.0659c-0.7593,0-1.3447,0.1631-1.7412,0.4854c-0.3999,0.3262-0.603,0.8076-0.603,1.4312
		c0,0.54,0.1646,0.9785,0.4897,1.3022c0.3252,0.3242,0.7651,0.4883,1.3066,0.4883c0.4038,0,0.752-0.0806,1.0356-0.2393
		c0.2212-0.1235,0.415-0.3018,0.5781-0.5317v0.6304h0.9932V82.915c0-0.4741-0.0254-0.8379-0.0757-1.082
		C114.7456,81.5874,114.6582,81.377,114.5361,81.2075z M113.8784,83.354v0.1274c-0.0029,0.5811-0.1343,1.0415-0.3901,1.3691
		c-0.2515,0.3208-0.6025,0.4839-1.0439,0.4839c-0.3154,0-0.5537-0.0825-0.729-0.2515c-0.1719-0.1665-0.2588-0.4053-0.2588-0.7095
		c0-0.3408,0.1133-0.5894,0.3462-0.7593c0.2363-0.1729,0.5977-0.2603,1.0742-0.2603H113.8784z"/>
	<path d="M119.7441,80.4883c-0.2422-0.0698-0.4937-0.105-0.7471-0.105c-0.8145,0-1.4619,0.2622-1.9238,0.7793
		c-0.459,0.5151-0.6919,1.2349-0.6919,2.1401s0.2329,1.625,0.6919,2.1401c0.4619,0.5171,1.1094,0.7793,1.9238,0.7793
		c0.2578,0,0.5132-0.0361,0.7578-0.1074c0.2476-0.0708,0.4897-0.1787,0.7197-0.3198l0.0337-0.021v-1.1362l-0.1211,0.1221
		c-0.1909,0.1914-0.4009,0.3354-0.625,0.4272c-0.2241,0.0913-0.4814,0.1377-0.7651,0.1377c-0.502,0-0.8945-0.1743-1.166-0.5181
		c-0.2759-0.3486-0.4155-0.855-0.4155-1.5039c0-0.6523,0.1387-1.1592,0.4126-1.5063c0.2744-0.3467,0.6572-0.5156,1.1689-0.5156
		c0.2749,0,0.5234,0.0454,0.7393,0.1353c0.2173,0.0903,0.437,0.2388,0.6528,0.4414l0.1191,0.1118v-1.1387l-0.0347-0.0205
		C120.23,80.6655,119.9844,80.5571,119.7441,80.4883z"/>
	<polygon points="126.5659,80.5142 125.3354,80.5142 123.2134,82.665 123.2134,78.4023 122.1968,78.4023 122.1968,86.0815 
		123.2134,86.0815 123.2134,83.8647 123.7617,83.3213 125.6401,86.0815 126.8491,86.0815 124.458,82.6372 	"/>
	<rect x="128.9878" y="84.4624" width="1.3018" height="1.6191"/>
	<path d="M134.9814,86.1201c0.3462,0,0.6455-0.0786,0.8896-0.2339c0.1729-0.1099,0.3213-0.2617,0.4429-0.4536v0.3604
		c0,0.5503-0.1001,0.9541-0.2969,1.2002c-0.1943,0.2432-0.5117,0.3662-0.9438,0.3662c-0.1973,0-0.418-0.0352-0.6562-0.1035
		c-0.2393-0.0693-0.5107-0.1787-0.8076-0.3252l-0.1021-0.0503v1.0464l0.0479,0.0161c0.2578,0.0884,0.5181,0.1562,0.7744,0.2012
		c0.2568,0.0459,0.5068,0.0688,0.7437,0.0688c0.7271,0,1.2871-0.2197,1.665-0.6538c0.375-0.4312,0.5649-1.0693,0.5649-1.897v-5.1284
		h-0.9893v0.5093c-0.1274-0.188-0.2793-0.3359-0.4541-0.4409c-0.2402-0.145-0.5356-0.2188-0.8784-0.2188
		c-0.6221,0-1.1265,0.2661-1.498,0.7905c-0.3657,0.5156-0.5513,1.2158-0.5513,2.0806c0,0.8608,0.1855,1.5596,0.5513,2.0757
		C133.855,85.8545,134.3589,86.1201,134.9814,86.1201z M133.9663,83.2544c0-0.6523,0.106-1.1523,0.3154-1.4858
		c0.2065-0.3281,0.4976-0.4878,0.8882-0.4878c0.3726,0,0.6484,0.1592,0.8433,0.4863c0.1997,0.3345,0.3008,0.835,0.3008,1.4873
		c0,0.6494-0.1011,1.1504-0.3008,1.4897c-0.1953,0.332-0.4678,0.4932-0.8335,0.4932c-0.3955,0-0.6885-0.1611-0.895-0.4922
		C134.0732,84.4082,133.9663,83.9067,133.9663,83.2544z"/>
	<path d="M141.1836,80.3833c-0.3237,0-0.6138,0.0752-0.8628,0.2231c-0.1772,0.1064-0.3281,0.2466-0.4512,0.418v-2.6221h-0.9883
		v7.6792h0.9883v-0.5039c0.126,0.1753,0.2788,0.3174,0.4561,0.4233c0.2446,0.147,0.5303,0.2212,0.8491,0.2212
		c0.644,0,1.1577-0.2671,1.5278-0.7935c0.3638-0.5186,0.5493-1.2402,0.5493-2.1455c0-0.8921-0.1846-1.6045-0.5469-2.1167
		C142.3359,80.647,141.8242,80.3833,141.1836,80.3833z M142.2173,83.3027c0,0.6748-0.1021,1.189-0.3027,1.5288
		c-0.1968,0.3315-0.48,0.4932-0.8647,0.4932c-0.3872,0-0.6729-0.1631-0.8726-0.498c-0.2041-0.3423-0.3076-0.855-0.3076-1.5239
		c0-0.6719,0.1035-1.1855,0.3071-1.5259c0.2002-0.334,0.4858-0.4961,0.873-0.4961c0.3848,0,0.6675,0.1616,0.8647,0.4932
		C142.1152,82.1138,142.2173,82.6279,142.2173,83.3027z"/>
	<path d="M146.2363,86.1201c0.3467,0,0.6455-0.0786,0.8896-0.2339c0.1729-0.1099,0.3213-0.2622,0.4424-0.4536v0.3604
		c0,0.5503-0.0996,0.9541-0.2969,1.2002c-0.1934,0.2432-0.5107,0.3662-0.9434,0.3662c-0.1973,0-0.418-0.0352-0.6562-0.1035
		c-0.2393-0.0693-0.5107-0.1787-0.8076-0.3252l-0.1025-0.0503v1.0464l0.0479,0.0161c0.2578,0.0884,0.5186,0.1562,0.7744,0.2012
		c0.2568,0.0459,0.5078,0.0688,0.7441,0.0688c0.7266,0,1.2871-0.2197,1.665-0.6538c0.375-0.4312,0.5654-1.0693,0.5654-1.897v-5.1284
		h-0.9902v0.5093c-0.127-0.188-0.2783-0.3359-0.4531-0.4409c-0.2402-0.145-0.5361-0.2188-0.8789-0.2188
		c-0.6221,0-1.126,0.2661-1.498,0.7905c-0.3662,0.5156-0.5518,1.2158-0.5518,2.0806c0,0.8608,0.1855,1.5596,0.5518,2.0757
		C145.1094,85.8545,145.6143,86.1201,146.2363,86.1201z M145.2217,83.2544c0-0.6523,0.1055-1.1523,0.3145-1.4858
		c0.207-0.3281,0.498-0.4878,0.8887-0.4878c0.3721,0,0.6484,0.1592,0.8438,0.4863c0.1992,0.3345,0.2998,0.835,0.2998,1.4873
		c0,0.6494-0.1006,1.1504-0.3008,1.4897c-0.1943,0.332-0.4668,0.4932-0.833,0.4932c-0.3955,0-0.6885-0.1611-0.8955-0.4922
		C145.3281,84.4082,145.2217,83.9067,145.2217,83.2544z"/>
	<path d="M152.2041,82.5151c-0.7588,0-1.3447,0.1631-1.7412,0.4854c-0.4004,0.3262-0.6035,0.8076-0.6035,1.4312
		c0,0.54,0.165,0.9785,0.4902,1.3022c0.3252,0.3242,0.7646,0.4883,1.3066,0.4883c0.4033,0,0.752-0.0806,1.0352-0.2393
		c0.2217-0.1235,0.415-0.3018,0.5781-0.5317v0.6304h0.9941V82.915c0-0.4741-0.0254-0.8379-0.0762-1.082
		c-0.0508-0.2456-0.1377-0.4561-0.2598-0.6255c-0.1943-0.2749-0.4512-0.4834-0.7637-0.6196
		c-0.3096-0.1357-0.6865-0.2046-1.1211-0.2046c-0.2734,0-0.5596,0.0322-0.8506,0.0962c-0.2891,0.0635-0.5957,0.1602-0.9111,0.2866
		l-0.0449,0.0181v1.0649l0.1074-0.0649c0.2744-0.1646,0.5576-0.2905,0.8447-0.3755c0.2861-0.085,0.5732-0.1279,0.8545-0.1279
		c0.4307,0,0.7451,0.0923,0.9355,0.2734s0.2891,0.481,0.291,0.8911v0.0698H152.2041z M153.2695,83.354v0.1274
		c-0.002,0.5811-0.1338,1.0415-0.3896,1.3691c-0.251,0.3208-0.6025,0.4839-1.0439,0.4839c-0.3154,0-0.5537-0.0825-0.7295-0.2515
		c-0.1709-0.1665-0.2578-0.4053-0.2578-0.7095c0-0.3408,0.1123-0.5894,0.3457-0.7593c0.2363-0.1729,0.5977-0.2603,1.0742-0.2603
		H153.2695z"/>
	<path d="M157.8486,84.6182l-1.4609-4.0571l-0.0166-0.0469h-1.0498l2.0205,5.4102c-0.21,0.6064-0.3828,0.9858-0.5156,1.1279
		c-0.126,0.1362-0.3057,0.2056-0.5322,0.2056h-0.5732v0.8872h0.7529c0.2939,0,0.5547-0.0669,0.7764-0.1982
		c0.2227-0.1323,0.4092-0.332,0.5547-0.5933c0.1074-0.1929,0.3096-0.7065,0.6172-1.5713c0.2119-0.5996,0.3926-1.1011,0.5381-1.4907
		l1.3936-3.7773h-1.0488L157.8486,84.6182z"/>
	<rect x="162.752" y="84.4624" width="1.3027" height="1.6191"/>
	<path d="M170.3896,80.4883c-0.2422-0.0698-0.4932-0.105-0.7471-0.105c-0.8145,0-1.4619,0.2622-1.9238,0.7793
		c-0.459,0.5151-0.6924,1.2349-0.6924,2.1401s0.2334,1.625,0.6924,2.1401c0.4619,0.5171,1.1094,0.7793,1.9238,0.7793
		c0.2578,0,0.5127-0.0361,0.7578-0.1074c0.2471-0.0708,0.4893-0.1787,0.7197-0.3198l0.0342-0.021v-1.1362l-0.1211,0.1221
		c-0.1914,0.1914-0.4014,0.3354-0.625,0.4272c-0.2246,0.0913-0.4824,0.1377-0.7656,0.1377c-0.502,0-0.8945-0.1743-1.166-0.5181
		c-0.2754-0.3486-0.415-0.855-0.415-1.5039c0-0.6523,0.1387-1.1592,0.4121-1.5063c0.2744-0.3467,0.6572-0.5156,1.1689-0.5156
		c0.2744,0,0.5234,0.0454,0.7393,0.1353c0.2178,0.0903,0.4365,0.2388,0.6523,0.4414l0.1201,0.1118v-1.1387l-0.0352-0.0205
		C170.876,80.6655,170.6299,80.5571,170.3896,80.4883z"/>
	<path d="M174.6621,80.3833c-0.7344,0-1.3037,0.2554-1.6943,0.7588c-0.3857,0.4985-0.5811,1.2251-0.5811,2.1606
		c0,0.9385,0.1953,1.6665,0.5811,2.1631c0.3906,0.502,0.96,0.7563,1.6943,0.7563c0.7373,0,1.3096-0.2544,1.6982-0.7563
		c0.3857-0.4966,0.582-1.2241,0.582-2.1631c0-0.9355-0.1963-1.6626-0.584-2.1606
		C175.9668,80.6387,175.3965,80.3833,174.6621,80.3833z M174.6621,85.3247c-0.4072,0-0.707-0.1626-0.915-0.4971
		c-0.2129-0.3408-0.3203-0.854-0.3203-1.5249c0-0.6743,0.1074-1.1885,0.3193-1.5273c0.209-0.333,0.5088-0.4946,0.916-0.4946
		c0.4102,0,0.7119,0.1616,0.9209,0.4946c0.2119,0.3389,0.3193,0.853,0.3193,1.5273c0,0.6709-0.1074,1.1841-0.3203,1.5249
		C175.374,85.1621,175.0723,85.3247,174.6621,85.3247z"/>
	<path d="M182.4863,80.9287c-0.1826-0.3618-0.498-0.5454-0.9395-0.5454c-0.2412,0-0.4512,0.0605-0.623,0.1802
		c-0.1377,0.0947-0.2559,0.2305-0.3525,0.4058c-0.085-0.1719-0.1934-0.3066-0.3242-0.4023c-0.167-0.1221-0.377-0.1836-0.624-0.1836
		c-0.207,0-0.3945,0.0552-0.5576,0.1646c-0.1006,0.0674-0.1904,0.1533-0.2686,0.2568v-0.2905h-0.9111v5.5674h0.9111v-3.1763
		c0-0.7275,0.042-1.1914,0.124-1.3784c0.0762-0.1724,0.208-0.2559,0.4023-0.2559c0.2002,0,0.333,0.0757,0.4082,0.2314
		c0.0566,0.1172,0.124,0.4556,0.124,1.4028v3.1763h0.915v-3.1763c0-0.9023,0.0703-1.2476,0.1289-1.3779
		c0.0791-0.1724,0.2227-0.2563,0.4395-0.2563c0.1855,0,0.3105,0.0771,0.3789,0.2363c0.0537,0.1211,0.1162,0.4624,0.1162,1.3979
		v3.1763h0.916v-3.2148C182.75,81.9126,182.6631,81.2783,182.4863,80.9287z"/>
	<path d="M135.6997,94.9058c0.3218-0.3647,0.5737-0.6587,0.7495-0.8735c0.3096-0.3784,0.5366-0.7295,0.6753-1.0435
		c0.1401-0.3179,0.2109-0.6406,0.2109-0.959c0-0.6284-0.2148-1.1436-0.6382-1.5317c-0.4204-0.3867-0.9824-0.583-1.6699-0.583
		c-0.3032,0-0.6133,0.0415-0.9224,0.1235c-0.3096,0.0815-0.6274,0.2041-0.9453,0.3633l-0.0391,0.0195v1.1606l0.1084-0.0684
		c0.3384-0.2129,0.6616-0.3735,0.9614-0.4775c0.2974-0.1035,0.585-0.1562,0.8555-0.1562c0.3716,0,0.6665,0.1089,0.8774,0.3232
		c0.2104,0.2139,0.3174,0.5166,0.3174,0.8994c0,0.2441-0.0522,0.4863-0.1553,0.7202c-0.1045,0.2373-0.3101,0.5542-0.6113,0.9404
		c-0.1636,0.2017-0.4619,0.5479-0.8867,1.0298c-0.4419,0.502-0.9482,1.0688-1.5044,1.6851l-0.0181,0.02v0.9219h4.3164v-0.9653
		h-3.0684C134.8926,95.8135,135.3701,95.2798,135.6997,94.9058z"/>
	<path d="M140.8984,89.915c-0.7568,0-1.3364,0.3311-1.7222,0.9839c-0.3789,0.6401-0.5713,1.5962-0.5713,2.8413
		c0,1.2417,0.1924,2.1963,0.5713,2.8359c0.3857,0.6533,0.9653,0.9844,1.7222,0.9844s1.3374-0.3311,1.7251-0.9844
		c0.3804-0.6421,0.5737-1.5962,0.5737-2.8359c0-1.2427-0.1934-2.1987-0.5737-2.8413
		C142.2354,90.2461,141.6553,89.915,140.8984,89.915z M140.8984,96.6436c-0.4058,0-0.7017-0.2271-0.9038-0.6938
		c-0.2085-0.481-0.3145-1.2241-0.3145-2.2095c0-0.9883,0.106-1.7334,0.3145-2.2148c0.2026-0.4668,0.498-0.6938,0.9038-0.6938
		c0.4082,0,0.7051,0.2271,0.9087,0.6938c0.208,0.48,0.3135,1.2251,0.3135,2.2148c0,0.9868-0.1055,1.73-0.3135,2.2095
		C141.604,96.4165,141.3066,96.6436,140.8984,96.6436z"/>
	<path d="M140.8896,92.9912c-0.186,0-0.3467,0.0728-0.478,0.2168c-0.1304,0.1421-0.1963,0.313-0.1963,0.5078
		c0,0.2051,0.0645,0.3779,0.1919,0.5132c0.1289,0.1372,0.291,0.207,0.4824,0.207c0.1938,0,0.3599-0.0708,0.4946-0.2104
		c0.1333-0.1392,0.2012-0.3105,0.2012-0.5098c0-0.1963-0.0684-0.3677-0.2031-0.5088
		C141.2461,93.064,141.0806,92.9912,140.8896,92.9912z"/>
	<path d="M146.9541,94.9058c0.3223-0.3647,0.5742-0.6587,0.75-0.8735c0.3096-0.3784,0.5371-0.7295,0.6748-1.0435
		c0.1406-0.3179,0.2119-0.6406,0.2119-0.959c0-0.6284-0.2148-1.1436-0.6387-1.5317c-0.4209-0.3867-0.9824-0.583-1.6699-0.583
		c-0.3027,0-0.6133,0.0415-0.9229,0.1235c-0.3086,0.0815-0.627,0.2041-0.9453,0.3633l-0.0391,0.0195v1.1606l0.1094-0.0684
		c0.3379-0.2129,0.6611-0.3735,0.9609-0.4775c0.2969-0.1035,0.585-0.1562,0.8555-0.1562c0.3711,0,0.666,0.1089,0.877,0.3232
		c0.2109,0.2139,0.3174,0.5166,0.3174,0.8994c0,0.2441-0.0518,0.4863-0.1543,0.7202c-0.1045,0.2373-0.3105,0.5542-0.6113,0.9404
		c-0.1641,0.2017-0.4629,0.5479-0.8867,1.0298c-0.4424,0.502-0.9482,1.0688-1.5049,1.6851l-0.0186,0.02v0.9219h4.3174v-0.9653
		h-3.0693C146.1475,95.8135,146.625,95.2798,146.9541,94.9058z"/>
	<path d="M153.6973,90.0459h-1.1885l-2.7812,4.6167l-0.0107,0.0171v1.0156h2.9131v1.7246h1.0674v-1.7246h0.916v-0.936h-0.916
		V90.0459z M150.6553,94.7593l1.9746-3.4829v3.4829H150.6553z"/>
</g>
</svg>
