<?xml version="1.0" encoding="utf-8"?>
<!-- Generator: Adobe Illustrator 27.8.1, SVG Export Plug-In . SVG Version: 6.00 Build 0)  -->
<svg version="1.1" id="Layer_1" xmlns="http://www.w3.org/2000/svg" xmlns:xlink="http://www.w3.org/1999/xlink" x="0px" y="0px"
	 width="283.4646px" height="283.4646px" viewBox="0 0 283.4646 283.4646" style="enable-background:new 0 0 283.4646 283.4646;"
	 xml:space="preserve">
<path d="M184.1804,82.1492c-3.1162-4.4932-5.9224-7.0439-8.3989-9.2939c-0.9868-0.8975-1.9189-1.7451-2.8052-2.6523
	c-0.8657-0.8867-1.6768-1.7354-2.4375-2.5312c-2.8545-2.9844-5.3198-5.5625-6.6519-5.8477c-1.2422-0.2646-3.2739,0.1992-5.8472,0.79
	c-3.8291,0.8779-9.0737,2.0801-16.3076,2.0801c-5.7544,0-10.8911-1.0791-15.0181-1.9463c-3.1016-0.6514-5.7803-1.2129-7.1367-0.9238
	c-1.3315,0.2852-3.7959,2.8623-6.6494,5.8467c-0.7617,0.7959-1.5732,1.6445-2.4395,2.5322
	c-0.8862,0.9072-1.8179,1.7539-2.8047,2.6514c-2.4766,2.251-5.2837,4.8018-8.3999,9.2949
	c-9.9297,14.3174-7.0776,23.5488-1.396,41.9404c0.4292,1.3896,0.874,2.8281,1.3291,4.3223c2.1973,7.2109,3.5356,7.9941,5.7534,9.291
	c2.1763,1.2725,5.1572,3.0166,9.8096,9.9453c7.2563,10.8076,8.2959,24.2402,9.1313,35.0342
	c0.5859,7.5732,1.0918,14.1133,3.5024,17.5947c4.8731,7.0391,9.1865,16.2891,11.4292,21.4414l2.374-9.0209l0.6752-72.4105
	l0.6869,73.6711l2.0422,7.7603c2.2427-5.1523,6.5562-14.4023,11.4292-21.4414c2.4106-3.4814,2.9165-10.0215,3.5024-17.5947
	c0.8354-10.7939,1.875-24.2266,9.1313-35.0342c4.6523-6.9287,7.6333-8.6719,9.8096-9.9453c2.2178-1.2969,3.5562-2.0801,5.7534-9.291
	c0.4551-1.4932,0.8994-2.9316,1.3286-4.3213C191.2585,105.698,194.1105,96.4666,184.1804,82.1492z M119.9318,126.0076
	c-5.5615,0.458-10.3354-0.7842-13.0981-3.3955c-6.8984-6.5195-10.543-17.0156-7.7993-22.46
	c1.0762-2.1357,2.9634-3.5107,5.6089-4.0879c0.9092-0.1982,1.8784-0.2939,2.8838-0.2939c4.2007,0,9.0142,1.6699,12.5444,4.4941
	c8.6084,6.8867,11.3296,18.2676,7.9287,23.4668C127.5344,124.3357,124.3605,125.6462,119.9318,126.0076z M125.505,148.2226
	l-0.9677-5.0221c4.3871-0.3973,5.6129,2.9576,6.129,7.4737L125.505,148.2226z M157.8203,148.2226l-5.1613,2.4516
	c0.5161-4.5161,1.7419-7.871,6.129-7.4737L157.8203,148.2226z M176.6311,122.6121c-2.7632,2.6113-7.5361,3.8535-13.0986,3.3955
	c-4.4287-0.3604-7.6025-1.6719-8.0684-2.2764c-3.4009-5.1992-0.6797-16.5801,7.9287-23.4668
	c4.3755-3.5,10.7173-5.2266,15.4287-4.2002c2.645,0.5771,4.5322,1.9521,5.6089,4.0879
	C187.1735,105.5964,183.529,116.0925,176.6311,122.6121z"/>
</svg>
