<?xml version="1.0" encoding="UTF-8" standalone="no"?>
<!-- Generator: Adobe Illustrator 27.8.1, SVG Export Plug-In . SVG Version: 6.00 Build 0)  -->

<svg
   version="1.1"
   id="Layer_1"
   x="0px"
   y="0px"
   width="160"
   height="128"
   viewBox="0 0 160 128"
   xml:space="preserve"
   sodipodi:docname="splash-fg.svg"
   inkscape:version="1.4 (86a8ad7, 2024-10-11)"
   inkscape:export-filename="splash-fg.png"
   inkscape:export-xdpi="96"
   inkscape:export-ydpi="96"
   xmlns:inkscape="http://www.inkscape.org/namespaces/inkscape"
   xmlns:sodipodi="http://sodipodi.sourceforge.net/DTD/sodipodi-0.dtd"
   xmlns="http://www.w3.org/2000/svg"
   xmlns:svg="http://www.w3.org/2000/svg"><defs
   id="defs22" /><sodipodi:namedview
   id="namedview22"
   pagecolor="#000000"
   bordercolor="#000000"
   borderopacity="0.25"
   inkscape:showpageshadow="2"
   inkscape:pageopacity="0.0"
   inkscape:pagecheckerboard="false"
   inkscape:deskcolor="#d1d1d1"
   inkscape:antialias-rendering="true"
   inkscape:zoom="1"
   inkscape:cx="54.5"
   inkscape:cy="56.5"
   inkscape:window-width="1920"
   inkscape:window-height="1051"
   inkscape:window-x="-9"
   inkscape:window-y="-9"
   inkscape:window-maximized="1"
   inkscape:current-layer="Layer_1" />
<g
   id="g22"
   transform="matrix(0.63590318,0,0,0.63590318,-10.127767,-26.128109)"
   style="fill:#ffffff;fill-opacity:1">
	<path
   d="m 105.3985,162.7427 1.835,-13.7266 5.3297,-2.8018 c -0.5999,-0.8666 -1.1647,-1.6379 -1.6929,-2.3126 l -6.252,3.2863 -2.21,16.5312 0.4561,0.4893 c 2.667,2.8623 6.3564,4.376 10.0986,4.375 2.1885,0 4.3945,-0.5166 6.4248,-1.584 0.2407,-0.1266 0.4641,-0.2725 0.6942,-0.4111 -0.1613,-1.0159 -0.3403,-2.0307 -0.5427,-3.0426 -0.4606,0.3451 -0.9445,0.6677 -1.4698,0.9439 -4.2501,2.2354 -9.2589,1.5196 -12.671,-1.747 z"
   id="path1"
   style="fill:#ffffff;fill-opacity:1" />
	<path
   d="m 194.164,136.5174 c -0.4248,0.4482 -0.9287,0.834 -1.5039,1.1367 -0.2053,0.1082 -0.4149,0.1988 -0.6264,0.2801 -2.2159,10.8515 -11.5957,19.1259 -22.9659,19.6476 -0.2941,0.9446 -0.5631,1.8961 -0.805,2.8544 13.2744,-0.1609 24.3046,-9.7936 26.6403,-22.4388 -0.1135,-0.17 -0.2403,-0.3289 -0.3367,-0.5123 -0.166,-0.3153 -0.2998,-0.6386 -0.4024,-0.9677 z"
   id="path2"
   style="fill:#ffffff;fill-opacity:1" />
	<path
   d="m 171.6957,150.9782 c -0.5058,1.0101 -0.9593,2.04 -1.3776,3.082 8.8513,-0.9995 16.0505,-7.472 18.1612,-15.9397 -0.9595,-0.2542 -1.8525,-0.748 -2.5781,-1.4581 -1.4535,7.1569 -7.0635,12.8195 -14.2055,14.3158 z"
   id="path3"
   style="fill:#ffffff;fill-opacity:1" />
	<path
   d="m 81.8643,158.1265 c 2.4678,4.6934 7.2471,7.3965 12.2246,7.3965 1.9619,0 3.9561,-0.4209 5.8506,-1.3057 l 0.6973,-0.3262 2.3447,-16.8652 -11.8593,-5.9441 -4.664,-0.8796 c -5.877,3.8927 -7.914,11.6073 -4.5939,17.9243 z m 18.0293,-9.4775 -1.8486,13.2959 c -5.1641,2.002 -11.0557,-0.1602 -13.6709,-5.1367 -2.6162,-4.9775 -1.0576,-11.0547 3.5186,-14.1738 z"
   id="path4"
   style="fill:#ffffff;fill-opacity:1" />
	<path
   d="m 94.9873,120.5855 c 0.0389,-0.0204 0.0796,-0.0351 0.1186,-0.0552 -0.2861,-0.929 -0.5641,-1.843 -0.834,-2.7348 -0.2001,0.0963 -0.4053,0.1764 -0.6029,0.2802 -4.9916,2.6241 -8.3922,7.3069 -9.4858,12.6085 0.6376,1.2217 1.4536,2.4075 2.4545,3.5999 0.0415,-5.6859 3.1941,-10.9893 8.3496,-13.6986 z"
   id="path5"
   style="fill:#ffffff;fill-opacity:1" />
	<path
   d="m 102.2364,166.1304 -0.6982,-0.6611 -0.8721,0.4053 c -7.5615,3.5068 -16.5244,0.4766 -20.4033,-6.9043 -3.4732,-6.6056 -1.757,-14.5795 3.7845,-19.2228 -1.4016,-0.265 -2.4949,-0.4662 -3.5053,-0.5662 -5.1801,5.5982 -6.5155,14.0194 -2.789,21.1074 4.4365,8.4404 14.498,12.0674 23.2393,8.5332 3.4014,2.9023 7.6641,4.4102 11.9727,4.4102 2.6382,0 5.2913,-0.571 7.776,-1.7268 -0.1097,-0.992 -0.2361,-1.9878 -0.3729,-2.9845 -0.0473,0.0255 -0.0898,0.0563 -0.1375,0.0814 -5.9132,3.1083 -13.1446,2.1141 -17.9942,-2.4718 z"
   id="path6"
   style="fill:#ffffff;fill-opacity:1" />
	<path
   d="m 107.6056,140.3689 -3.8536,2.0252 -12.3467,-6.2695 c -0.046,-0.2838 -0.08,-0.567 -0.1039,-0.8493 -0.0084,-0.0988 -0.009,-0.1967 -0.0146,-0.2952 -0.0106,-0.1831 -0.0224,-0.3661 -0.0239,-0.5482 -0.001,-0.1196 0.006,-0.2379 0.0089,-0.3569 0.0038,-0.1584 0.0058,-0.3171 0.0165,-0.4744 0.0089,-0.1309 0.0252,-0.2601 0.0388,-0.3901 0.015,-0.1435 0.0282,-0.2872 0.0488,-0.4295 0.0199,-0.1377 0.0466,-0.2734 0.0718,-0.4099 0.0242,-0.1309 0.0469,-0.262 0.0759,-0.3916 0.0318,-0.1429 0.0697,-0.2836 0.1072,-0.4247 0.032,-0.1201 0.0631,-0.2404 0.0992,-0.3591 0.0444,-0.1464 0.0944,-0.2906 0.1449,-0.4348 0.0382,-0.1088 0.076,-0.2175 0.1177,-0.3249 0.058,-0.15 0.121,-0.2975 0.1857,-0.4446 0.0428,-0.0974 0.0859,-0.1946 0.1317,-0.2907 0.0721,-0.1518 0.1487,-0.3011 0.228,-0.4495 0.0464,-0.0866 0.0934,-0.1728 0.1422,-0.2582 0.0873,-0.1531 0.1783,-0.3037 0.2733,-0.4526 0.048,-0.0753 0.0972,-0.1498 0.1472,-0.224 0.1034,-0.1536 0.2101,-0.3047 0.3216,-0.4533 0.0481,-0.064 0.0977,-0.1271 0.1473,-0.1901 0.1203,-0.1531 0.2437,-0.3038 0.3727,-0.4509 0.0464,-0.0529 0.0945,-0.1044 0.142,-0.1565 0.1385,-0.152 0.2802,-0.3014 0.428,-0.4462 0.0425,-0.0416 0.0869,-0.0817 0.1302,-0.1227 0.1578,-0.1497 0.3188,-0.2964 0.4866,-0.4376 0.0367,-0.0309 0.0753,-0.0601 0.1124,-0.0906 0.1796,-0.147 0.3624,-0.2908 0.5527,-0.4277 0.0236,-0.017 0.0485,-0.0327 0.0723,-0.0495 0.2068,-0.1464 0.418,-0.2882 0.637,-0.4221 1e-4,-10e-5 2e-4,-2e-4 3e-4,-2e-4 -0.29,-0.9445 -0.5767,-1.8748 -0.8552,-2.7762 -2.2349,1.2185 -4.0283,2.9946 -5.2668,5.0837 -0.0026,0.004 -0.0048,0.009 -0.0073,0.0132 -0.1734,0.2932 -0.3361,0.5924 -0.4874,0.8973 -0.0096,0.0194 -0.0175,0.0397 -0.027,0.0592 -0.1424,0.2905 -0.2762,0.5851 -0.398,0.8848 -0.0168,0.0415 -0.03,0.0844 -0.0465,0.126 -0.1105,0.2797 -0.2153,0.5618 -0.3076,0.8483 -0.022,0.0685 -0.0381,0.1388 -0.0591,0.2076 -0.08,0.2627 -0.1576,0.5262 -0.2219,0.7937 -0.0233,0.0969 -0.0386,0.1958 -0.0597,0.2932 -0.0528,0.2425 -0.1062,0.4848 -0.1459,0.7304 -0.0209,0.1298 -0.0317,0.2617 -0.0489,0.3922 -0.0286,0.2164 -0.0608,0.4324 -0.0791,0.6506 -0.0139,0.1652 -0.0153,0.3319 -0.0231,0.4979 -0.0089,0.1863 -0.0236,0.3718 -0.0248,0.5589 -0.0014,0.2124 0.0117,0.426 0.0203,0.6392 0.0057,0.1428 0.0039,0.285 0.0142,0.428 0.0256,0.357 0.065,0.7147 0.1192,1.0723 l 2.4202,2.6378 12.7563,6.4782 5.9178,-3.1111 c -0.7691,-0.8783 -1.4582,-1.5574 -2.0879,-2.1053 z"
   id="path7"
   style="fill:#ffffff;fill-opacity:1" />
	<path
   d="m 126.3257,140.0089 0.9677,5.0222 5.1613,2.4516 c -0.5161,-4.5161 -1.742,-7.871 -6.129,-7.4738 z"
   id="path8"
   style="fill:#ffffff;fill-opacity:1" />
	<path
   d="m 159.701,140.0179 c -3.3143,0.3517 -4.3427,3.4443 -4.8021,7.4648 l 5.1613,-2.4516 0.6666,-3.4594 c -0.3322,-0.364 -0.636,-0.756 -0.8713,-1.2037 -0.0603,-0.1146 -0.1026,-0.2334 -0.1545,-0.3501 z"
   id="path9"
   style="fill:#ffffff;fill-opacity:1" />
	<path
   d="m 180.0132,117.9038 1.3992,2.6613 c 0.85,-0.8942 1.6625,-1.8617 2.4269,-2.8878 l -2.9106,-0.837 c -0.2946,0.3633 -0.6035,0.7147 -0.9155,1.0635 z"
   id="path10"
   style="fill:#ffffff;fill-opacity:1" />
	<path
   d="m 170.529,122.8516 c 0.035,0.0102 0.0708,0.0143 0.1058,0.0251 1.2587,0.3912 2.303,1.1975 3.0368,2.2687 1.0635,-0.2743 2.1249,-0.6436 3.1494,-1.1306 l -1.332,-2.5338 c -1.4426,0.671 -3.1146,1.1328 -4.96,1.3706 z"
   id="path11"
   style="fill:#ffffff;fill-opacity:1" />
	<path
   d="m 185.6003,108.7954 c -0.3986,1.0316 -0.8695,2.0633 -1.4088,3.0844 l 2.7505,0.791 c 0.9603,-1.8959 1.7261,-3.8589 2.2487,-5.8067 z"
   id="path12"
   style="fill:#ffffff;fill-opacity:1" />
	<path
   d="m 108.6182,119.565 c -3.6687,-3.4665 -6.5776,-8.3428 -7.9133,-12.9604 l -3.3858,-2.1185 c 0.7706,4.8547 3.2927,10.1532 6.8351,14.4327 0.6625,0.8003 1.36,1.5634 2.0895,2.2823 0.1429,0.1409 0.282,0.2872 0.4272,0.4244 1.6142,1.5254 3.5306,2.5279 5.4975,3.1747 0.0421,0.0139 0.0843,0.0264 0.1264,0.0399 l 0.3804,-0.1011 0.7443,-1.264 0.6356,-1.0794 c -2.2057,-0.5816 -4.0684,-1.5371 -5.4369,-2.8306 z"
   id="path13"
   style="fill:#ffffff;fill-opacity:1" />
	<path
   d="m 133.7334,111.9365 c -0.316,-2.0065 -0.9167,-4.0849 -1.8201,-6.1473 -0.1064,-0.2432 -0.2178,-0.4848 -0.3325,-0.7271 -0.861,-1.8195 -1.9468,-3.6112 -3.2712,-5.3079 -1.3289,-1.7026 -2.8846,-3.3113 -4.6827,-4.7499 -0.3793,-0.3035 -0.7788,-0.5939 -1.1885,-0.876 -0.2171,-0.1488 -0.4459,-0.2898 -0.6718,-0.4328 -0.187,-0.1191 -0.3722,-0.2396 -0.564,-0.354 -0.3141,-0.1863 -0.6371,-0.3649 -0.9646,-0.5391 -0.0995,-0.0533 -0.1981,-0.1074 -0.2986,-0.1595 -0.3971,-0.2042 -0.8013,-0.4007 -1.2142,-0.5858 -0.0177,-0.0079 -0.0353,-0.016 -0.053,-0.0239 -2.2905,-1.0277 -4.7566,-1.742 -7.1546,-2.0124 l -0.003,0.0231 c -0.8506,-0.0979 -1.6953,-0.1337 -2.5296,-0.1226 -1.6198,0.0215 -3.192,0.2478 -4.6389,0.7403 l 3.4072,2.1462 c 0.373,-0.0389 0.7514,-0.0647 1.1357,-0.0735 0.9692,-0.0222 1.9703,0.0552 2.9775,0.2081 0.1434,0.0215 0.2866,0.0428 0.4303,0.0677 0.3022,0.0527 0.6046,0.1102 0.9067,0.1769 0.1015,0.0225 0.2028,0.0497 0.3042,0.0739 0.4976,0.1177 0.9924,0.2552 1.4838,0.4083 0.2259,0.071 0.4517,0.1417 0.6757,0.2199 0.2006,0.0695 0.4,0.1417 0.5984,0.2167 0.433,0.165 0.8644,0.3351 1.2856,0.5251 0.0186,0.0083 0.0369,0.0165 0.0554,0.0249 0.353,0.1605 0.6999,0.3281 1.0414,0.5055 0.085,0.0438 0.1677,0.0895 0.2518,0.1343 0.2858,0.1533 0.5685,0.3085 0.8441,0.4731 0.1636,0.0971 0.3197,0.1996 0.4789,0.3004 0.1996,0.127 0.402,0.2509 0.5948,0.3836 0.3598,0.2466 0.7078,0.5007 1.0375,0.7643 1.8792,1.5035 3.4604,3.2274 4.7761,5.048 0.2977,0.4119 0.5841,0.8264 0.8528,1.2475 0.5818,0.9121 1.1093,1.8393 1.5547,2.7757 0.2325,0.4886 0.4397,0.9788 0.6349,1.4686 0.0128,0.0322 0.029,0.0643 0.0416,0.0965 0.2074,0.5269 0.3909,1.0527 0.555,1.5763 0.4261,1.3592 0.6956,2.6929 0.8292,3.9734 0.0918,0.8798 0.1245,1.7341 0.0776,2.5445 -0.1065,1.8405 -0.5645,3.4727 -1.3912,4.7344 -5e-4,7e-4 -0.016,0.0201 -0.0535,0.055 -0.1721,0.1803 -0.549,0.4114 -1.1114,0.6597 -0.3386,0.1495 -0.7462,0.3043 -1.2074,0.457 l -0.9342,1.4661 -1.2896,2.0237 c 0.7516,-0.1448 1.4957,-0.3203 2.2073,-0.5222 0.8608,-0.2443 1.6716,-0.528 2.3812,-0.8494 l 0.003,0.006 c 0.1218,-0.0548 0.2213,-0.1119 0.3346,-0.1675 0.0728,-0.0357 0.1457,-0.0715 0.2149,-0.1077 0.1459,-0.0764 0.2885,-0.1539 0.4222,-0.2339 0.0147,-0.009 0.0273,-0.0178 0.0418,-0.0266 0.2397,-0.1454 0.4536,-0.2976 0.6479,-0.4543 0.0728,-0.0596 0.1461,-0.1191 0.2112,-0.1799 0.062,-0.0568 0.1209,-0.1141 0.1763,-0.1723 0.1205,-0.1287 0.2336,-0.2585 0.322,-0.3932 1.6947,-2.5852 2.2133,-6.2919 1.5812,-10.3058 z"
   id="path14"
   style="fill:#ffffff;fill-opacity:1" />
	<path
   d="m 189.9385,122.3026 -1.7784,-3.3829 -0.1335,-0.0384 c -0.2182,0.71 -0.4368,1.4206 -0.6653,2.1602 -0.2886,0.9332 -0.5858,1.8979 -0.8863,2.8775 0.1279,0.1862 0.2512,0.3771 0.3589,0.5818 0.4639,0.8818 0.6768,1.8301 0.665,2.7627 0.3325,-0.1563 0.674,-0.2703 1.0187,-0.3586 0.0751,-0.2377 0.149,-0.4633 0.2255,-0.714 0.4087,-1.3409 0.8076,-2.6322 1.1954,-3.8883 z"
   id="path15"
   style="fill:#ffffff;fill-opacity:1" />
	<path
   d="m 184.1552,132.4579 c -0.4979,0.233 -1.015,0.3629 -1.5348,0.4464 -0.7145,0.7932 -1.4582,1.2347 -2.3421,1.7516 -2.1768,1.2734 -5.1572,3.0166 -9.8096,9.9453 -7.2568,10.8076 -8.2959,24.2402 -9.1318,35.0342 -0.5859,7.5732 -1.0918,14.1133 -3.502,17.5947 -4.873,7.0391 -9.1865,16.2891 -11.4297,21.4414 l -1.7383,-5.2119 -0.8248,-67.3472 -0.1548,-8.3019 -0.0106,-0.5706 -0.0319,1.7115 -0.1224,6.564 -1.033,67.799 -1.8625,5.3581 c -2.2422,-5.1523 -6.5557,-14.4023 -11.4297,-21.4424 -2.4092,-3.4814 -2.915,-10.0215 -3.501,-17.5938 -0.3372,-4.3541 -0.7151,-9.1392 -1.5132,-14.0067 -1.1804,-7.1992 -3.2891,-14.5805 -7.6186,-21.0285 -1.1107,-1.6541 -2.1235,-3.0056 -3.0555,-4.1328 -0.699,-0.8454 -1.3503,-1.5595 -1.9604,-2.1717 -1.9838,-1.9905 -3.5269,-2.8995 -4.7937,-3.6409 -2.2178,-1.2969 -3.5566,-2.0801 -5.7539,-9.291 -0.1833,-0.602 -0.3635,-1.1886 -0.5432,-1.7729 -0.2662,-0.8661 -0.5294,-1.7195 -0.7859,-2.5493 -0.019,-0.0616 -0.0368,-0.1197 -0.0558,-0.1811 -0.1822,-0.59 -0.3594,-1.1655 -0.5359,-1.7395 -0.2834,-0.9213 -0.5594,-1.8258 -0.8255,-2.7083 -1.5018,-4.9808 -2.7054,-9.3707 -3.3127,-13.4151 l -3.1041,-1.9423 c 0.4675,4.8964 1.8778,10.1302 3.7068,16.1862 0.2664,0.882 0.54,1.782 0.8229,2.701 0.1779,0.5782 0.3546,1.153 0.5381,1.7469 0.0198,0.0643 0.0383,0.1246 0.0582,0.1891 0.2558,0.8269 0.5182,1.6777 0.7837,2.5411 0.1794,0.5835 0.3594,1.1694 0.5425,1.7704 2.4033,7.8877 4.1504,9.2256 7.0332,10.9111 1.0204,0.5971 2.1659,1.2677 3.5889,2.5801 0.6191,0.571 1.2946,1.2734 2.0316,2.1348 0.9683,1.1317 2.0452,2.5439 3.2673,4.3642 4.3688,6.5064 6.3541,14.1661 7.4327,21.5784 0.6105,4.1959 0.9335,8.3135 1.2265,12.0954 0.6172,7.9824 1.1504,14.877 3.9971,18.9883 6.792,9.8115 12.6924,24.5996 12.751,24.748 l 1.5898,4.0088 2.3086,-8.7686 2.3066,8.7695 1.5908,-4.0098 c 0.0586,-0.1484 5.959,-14.9365 12.751,-24.748 2.8467,-4.1113 3.3809,-11.0059 3.998,-18.9893 0.8105,-10.4629 1.8184,-23.4834 8.6592,-33.6729 4.29,-6.3896 6.8389,-7.8809 8.8877,-9.0791 1.1239,-0.6573 2.0745,-1.267 2.9596,-2.2277 -0.3443,-0.769 -0.5245,-1.5884 -0.5144,-2.4162 z"
   id="path16"
   style="fill:#ffffff;fill-opacity:1" />
	<path
   d="m 189.6574,113.4516 2.3953,0.6888 0.2296,0.4368 c 0.4465,-1.5341 0.8575,-3.014 1.2241,-4.4478 l -2.0093,-3.822 c -0.4783,2.241 -1.105,4.605 -1.8397,7.1442 z"
   id="path17"
   style="fill:#ffffff;fill-opacity:1" />
	<path
   d="m 129.7557,114.3129 c -4e-4,-0.008 2e-4,-0.0151 -2e-4,-0.0229 -0.024,-0.4337 -0.0681,-0.88 -0.1298,-1.335 -0.002,-0.013 -0.002,-0.0251 -0.004,-0.0381 -0.0844,-0.6119 -0.2167,-1.2452 -0.3716,-1.886 l -6.6249,10.3958 -0.9795,1.537 -1.856,2.9125 -0.8847,1.3883 -1.288,2.0212 0.6582,2.4785 -0.6395,0.1699 -1.7467,0.4642 -1.4429,0.3835 -1.0176,-3.8291 1.3392,-0.3558 0.653,-0.1735 0.7064,-1.1998 0.0849,-0.1442 0.7748,-1.316 1.6153,-2.7437 0.8337,-1.4162 3.5494,-6.0288 -12.8455,-8.0379 -2.4162,-1.5119 -2.3897,-1.4954 -3.9582,-2.4768 -0.3395,-0.2125 -5.0595,-3.166 -0.3557,-0.2226 -19.5175,-12.213 -0.5273,1.792 c -0.1973,0.6699 -4.8281,16.5078 -5.0898,25.6191 -0.1992,6.9785 2.3477,14.1299 5.5625,15.6152 1.3105,0.6074 2.3271,0.3867 2.9521,0.0908 0.6377,2.0059 1.5732,3.8916 2.8408,5.7246 -2.0078,-0.2793 -3.7939,-0.3037 -6.3076,0.1836 0.0918,-0.8896 -0.0322,-1.8623 -0.5664,-2.792 -0.1484,-0.2578 -0.3584,-0.5967 -0.6143,-1.0098 -2.2607,-3.6397 -8.2656,-13.3076 -5.6533,-24.0508 3.9961,-16.4355 -1.8271,-28.1445 -5.5078,-33.5195 6.4297,1.043 19.4844,1.3125 32.5547,-9.4326 6.0309,-4.9568 13.4346,-5.8084 18.7717,-5.7231 1.0991,-1.091 2.0972,-2.0079 3.0414,-2.6982 -5.6443,-0.4296 -15.5946,-0.3589 -23.6139,6.2319 -16.6855,13.7188 -33.7344,8.042 -33.9043,7.9844 l -5.6709,-1.9834 4.1885,4.3105 c 0.125,0.1289 12.4922,13.1602 7.3867,34.1602 -2.8936,11.8994 3.5674,22.3008 5.999,26.2168 0.2354,0.3779 0.4277,0.6885 0.5635,0.9248 0.6377,1.1104 -0.3232,2.5283 -0.3271,2.5342 l -2.3027,3.2305 3.8291,-1.04 c 3.6824,-1.0012 5.5716,-1.0485 8.113,-0.6639 0.7975,0.1207 1.6574,0.2827 2.6594,0.4725 l 4.7471,0.8945 -2.8799,-3.1396 c -0.9645,-1.0515 -1.7794,-2.1082 -2.479,-3.1831 -1.4198,-2.1814 -2.3249,-4.4438 -2.7632,-6.9331 l -1.1387,-6.4678 -1.6299,6.3623 c -0.0469,0.1826 -0.2861,0.7197 -0.5459,0.8428 -0.1406,0.0703 -0.4082,-0.0332 -0.5527,-0.0996 -1.4922,-0.6904 -4.1133,-6.1357 -3.918,-12.9619 0.2002,-6.999 3.2373,-18.6445 4.4658,-23.0957 l 12.7198,7.9593 1.2234,0.7656 2.9795,1.8643 1.2205,0.7637 0.3625,0.2268 0.8342,0.522 3.1175,1.9507 1.7355,1.086 1.8514,1.1584 2.3893,1.4951 2.4166,1.5121 10.5073,6.5748 -2.8623,4.8616 -0.7815,1.3274 -1.1002,1.8688 -0.4266,0.7245 -0.4036,0.6855 -0.321,0.0853 -0.8878,0.2359 -2.1362,0.5676 c 9e-4,0.001 0.002,0.002 0.003,0.003 -0.001,-10e-4 -0.002,-0.002 -0.003,-0.003 l -0.2642,0.0702 2.4746,9.3076 0.7269,-0.1931 2.8934,-0.7686 1.8022,-0.4788 3.8852,-1.0322 -1.0664,-4.0156 1.6624,-2.6086 0.961,-1.508 2.0574,-3.2284 1.0991,-1.7247 3.3141,-5.2004 c 0.01,-0.3814 0.007,-0.7729 -0.0144,-1.1771 z"
   id="path18"
   style="fill:#ffffff;fill-opacity:1" />
	<path
   d="m 127.8413,106.983 c -0.002,-0.004 -0.004,-0.009 -0.005,-0.0131 -0.3421,-0.7377 -0.7492,-1.4734 -1.1882,-2.2047 l -0.7823,1.1708 -12.02,-7.5717 -2.4117,-1.5192 -2.3851,-1.5025 -1.6673,-1.0504 -1.7047,-1.0739 -2.9423,-1.8535 -1.3735,-0.8653 -3.6431,-2.295 -1.2437,-0.7834 -2.4324,-1.5323 -1.1966,-0.7538 -8.2591,-5.2029 c 3.4746,-3.04 12.6426,-10.8359 18.8594,-14.0566 2.2009,-1.1401 4.3956,-1.8629 6.3635,-2.2768 0.651,-0.6721 1.2792,-1.3263 1.8674,-1.9417 0.4424,-0.4625 0.8642,-0.9031 1.2734,-1.3275 -3.2762,0.1429 -7.2618,1.191 -10.809,3.0283 -8.0918,4.1943 -20.3428,15.2471 -20.8604,15.7158 l -1.3857,1.2539 27.643,17.4139 2.3843,1.5021 2.4124,1.5195 14.3552,9.042 1.4352,-2.1482 c -0.0952,-0.2246 -0.179,-0.4486 -0.2832,-0.6738 z"
   id="path19"
   style="fill:#ffffff;fill-opacity:1" />
	<path
   d="m 188.295,77.4868 c -3.2998,-4.7568 -6.2334,-7.4229 -8.8203,-9.7744 -0.2151,-0.1954 -0.4167,-0.3829 -0.6262,-0.5743 -0.7208,-0.6586 -1.4174,-1.3043 -2.0579,-1.9614 l 10e-4,-0.0014 c -0.8584,-0.8789 -1.6621,-1.7197 -2.417,-2.5078 -3.5664,-3.7305 -5.9229,-6.1943 -8.1074,-6.6621 -0.233,-0.0502 -0.4714,-0.0859 -0.7161,-0.1091 -1.7022,-0.1608 -3.7096,0.2998 -6.3591,0.9069 -3.6973,0.8486 -8.7607,2.0098 -15.6738,2.0098 -3e-4,0 -6e-4,0 -9e-4,0 -4e-4,0 -7e-4,0 -0.001,0 -5.46,0 -10.4365,-1.0459 -14.4355,-1.8857 -1.9057,-0.4014 -3.5342,-0.7413 -4.9362,-0.9225 -0.6365,-0.0823 -1.2299,-0.1344 -1.7751,-0.1402 -0.5813,-0.006 -1.1128,0.0369 -1.5992,0.1409 -0.2615,0.056 -0.526,0.1443 -0.7942,0.2562 -1.0615,0.443 -2.1954,1.3245 -3.4999,2.5463 -0.0975,0.0914 -0.1906,0.173 -0.2902,0.2682 -0.3484,0.3333 -0.7094,0.6896 -1.0851,1.0688 -0.0665,0.0671 -0.1398,0.1438 -0.2072,0.2123 -0.692,0.7029 -1.426,1.4678 -2.2288,2.3073 -0.1773,0.1853 -0.3668,0.3828 -0.5497,0.5737 -0.5121,0.5348 -1.0435,1.0868 -1.601,1.66 -7e-4,10e-5 -0.002,3e-4 -0.002,5e-4 -0.0909,0.0934 -0.1757,0.1822 -0.2679,0.2766 -0.8271,0.8486 -1.7295,1.6689 -2.6855,2.5371 -2.5869,2.3516 -5.5205,5.0176 -8.8203,9.7744 -0.5482,0.7905 -1.056,1.5677 -1.5352,2.3367 -1.0025,1.6091 -1.8542,3.176 -2.5698,4.7197 l 2.4168,1.5224 c 0.6791,-1.5068 1.5028,-3.0417 2.4839,-4.6258 0.4751,-0.7672 0.9846,-1.5451 1.5343,-2.3378 3e-4,-5e-4 7e-4,-9e-4 0.001,-0.0013 3.1149,-4.4902 5.9202,-7.0409 8.3965,-9.2906 0.9873,-0.8975 1.9199,-1.7461 2.8076,-2.6543 0.8662,-0.8877 1.6777,-1.7363 2.4395,-2.5332 0.0155,-0.0162 0.0302,-0.0315 0.0457,-0.0477 0.3921,-0.41 0.7746,-0.8088 1.1498,-1.1981 0.7661,-0.7946 1.488,-1.5266 2.1594,-2.1727 0.3,-0.2888 0.588,-0.5559 0.8643,-0.8029 0.0783,-0.0701 0.1564,-0.1395 0.2327,-0.2059 0.5009,-0.4352 0.9534,-0.7805 1.3547,-1.0267 0.1949,-0.1196 0.3758,-0.2112 0.5438,-0.2778 0.1002,-0.0397 0.2079,-0.0947 0.298,-0.114 0.1706,-0.0363 0.3621,-0.059 0.5724,-0.07 0.5471,-0.0289 1.2333,0.0287 2.007,0.1346 1.2979,0.1777 2.8604,0.5021 4.5602,0.8592 4.1267,0.8671 9.2621,1.9462 15.0167,1.9463 7.2328,-10e-5 12.4777,-1.2022 16.3066,-2.0801 2.392,-0.5487 4.3079,-0.9838 5.5662,-0.8275 0.0943,0.0117 0.1937,0.0187 0.2805,0.0374 1.332,0.2852 3.7969,2.8623 6.6504,5.8467 0.7617,0.7959 1.5732,1.6445 2.4385,2.5322 0.6567,0.6719 1.3478,1.3151 2.0576,1.9656 0.2497,0.2288 0.4931,0.4551 0.7501,0.6887 2.4766,2.25 5.2822,4.8008 8.3975,9.292 3.7748,5.4424 5.6969,10.151 6.3237,14.9073 l 2.6704,-1.4059 c -0.8076,-4.7914 -2.858,-9.6277 -6.6645,-15.1166 z"
   id="path20"
   style="fill:#ffffff;fill-opacity:1" />
	<path
   d="m 228.5879,110.9478 c -0.5449,-1.0371 -1.4619,-1.7998 -2.5801,-2.1475 -0.6514,-0.2031 -1.3262,-0.251 -1.9795,-0.1475 l -9.0771,-17.2656 -10.7451,-0.9668 c -0.9531,-0.1963 -1.9404,-0.0566 -2.7998,0.3965 l -4.8967,2.5779 -1.3411,0.7061 -2.7191,1.4314 -1.3164,0.6931 -0.5299,0.2789 -1.2953,0.682 -2.5645,1.35 -1.2524,0.6593 -28.1185,14.8031 c -0.007,0.0934 -0.0225,0.1918 -0.0276,0.2841 -0.0165,0.3032 -0.0127,0.5923 -0.0112,0.8831 5e-4,0.1309 -0.009,0.2687 -0.005,0.3969 6e-4,0.0182 0.004,0.0344 0.004,0.0526 0.02,0.5371 0.0811,1.0391 0.1628,1.5212 l 28.2318,-14.8627 1.3896,-0.7316 2.7766,-1.4617 1.2031,-0.6334 0.1786,-0.0941 1.2349,-0.6501 2.8596,-1.5054 1.3989,-0.7365 5.9577,-3.1365 c 0.2891,-0.1523 0.625,-0.1943 0.9404,-0.1211 l 1.6475,0.167 -8.5302,4.5877 -1.434,0.7712 -2.9363,1.5792 -1.0112,0.5438 -0.444,0.2388 -1.007,0.5416 -2.9247,1.573 -1.5158,0.8152 -27.565,14.8251 -0.005,0.002 c 0.1263,0.3198 0.2692,0.618 0.432,0.8874 0.1106,0.0837 0.2618,0.1697 0.4238,0.2558 0.4288,0.2278 1.0214,0.4584 1.7499,0.673 l 0.0651,-0.035 1.9946,-1.0728 0.5352,1.0186 -0.3635,0.6077 -0.7781,1.3008 -1.5311,2.5597 -0.7452,1.2458 -1.257,2.1014 3.3047,6.2871 c -1.251,1.3252 -1.5889,3.3525 -0.6953,5.0547 0.7842,1.4902 2.3115,2.3438 3.8896,2.3438 0.6865,0 1.3838,-0.1621 2.0332,-0.5029 2.1387,-1.126 2.9648,-3.7822 1.8408,-5.9219 -0.8945,-1.7012 -2.7529,-2.5723 -4.5596,-2.293 l -2.5635,-4.8779 0.948,-1.5855 0.7714,-1.2902 1.2503,-2.0911 1.0049,1.9111 c -0.1097,0.1155 -0.1904,0.2545 -0.2866,0.3814 -0.3038,0.4006 -0.5609,0.8378 -0.7144,1.3325 -7e-4,0.002 -7e-4,0.005 -0.001,0.007 -0.345,1.116 -0.2366,2.2998 0.3071,3.3347 0.5449,1.0371 1.4609,1.7998 2.5801,2.1475 1.1182,0.3477 2.3047,0.2373 3.3418,-0.3057 1.0371,-0.5449 1.7998,-1.4619 2.1475,-2.5801 0.3092,-0.9953 0.2374,-2.0381 -0.1611,-2.9868 -0.0496,-0.118 -0.0842,-0.2403 -0.1445,-0.355 -0.1783,-0.3395 -0.409,-0.6365 -0.6611,-0.9123 -0.5181,-0.5667 -1.1668,-1.0013 -1.9189,-1.2352 -0.6523,-0.2031 -1.3252,-0.251 -1.9795,-0.1475 l -0.5577,-1.0612 -0.7592,-1.4443 -1.7798,-3.3861 7.9707,-4.2861 2.9716,5.6537 0.6562,1.2485 1.3349,2.5398 0.4416,0.8402 c -0.2473,0.262 -0.4479,0.5571 -0.6214,0.8661 -0.7043,1.2537 -0.7916,2.8228 -0.0739,4.1876 1.126,2.1406 3.7822,2.9658 5.9229,1.8418 0.0737,-0.0388 0.1333,-0.0928 0.2039,-0.1352 1.7416,-1.0457 2.5229,-3.1329 1.9403,-5.0311 -0.0786,-0.2562 -0.1754,-0.5099 -0.3044,-0.7556 -0.5449,-1.0371 -1.4609,-1.7998 -2.5801,-2.1475 -0.6185,-0.192 -1.256,-0.2402 -1.8798,-0.1573 -0.0331,0.004 -0.0667,0.005 -0.0997,0.01 l -0.6519,-1.2402 -1.3815,-2.6283 -0.6878,-1.3085 -1.9078,-3.6296 4.0239,1.1577 1.4557,0.4188 2.8482,0.8195 1.462,0.4206 2.2834,0.657 0.6689,0.1924 0.0322,0.0605 h -0.001 l 1.3811,2.6277 0.9518,1.811 0.7256,1.3806 -0.8279,1.9649 -1.0851,2.5751 c -0.8001,-0.0657 -1.601,0.0951 -2.3325,0.4653 -0.0193,0.01 -0.0399,0.0158 -0.0591,0.0259 h -0.001 c -1.8103,0.9531 -2.6643,3.0013 -2.2068,4.9059 0.0829,0.3455 0.1944,0.6874 0.367,1.016 0.0927,0.1763 0.2103,0.3294 0.3226,0.4875 0.6021,0.848 1.4584,1.431 2.4158,1.6906 1.0322,0.2798 2.1653,0.1984 3.1844,-0.3363 0.126,-0.0664 0.2344,-0.1547 0.3521,-0.2318 0.8496,-0.5564 1.4881,-1.3662 1.7935,-2.3483 0.3477,-1.1191 0.2393,-2.3057 -0.3057,-3.3418 -0.2422,-0.46 -0.5566,-0.8652 -0.9287,-1.2051 l 1.0195,-2.4199 1.184,2.2525 1.4,2.6635 c -0.4551,0.4805 -0.7979,1.0625 -1.001,1.7129 -0.0721,0.2321 -0.1125,0.4679 -0.1456,0.7038 -0.008,0.1899 -0.021,0.3786 -0.0331,0.5676 -0.006,0.7135 0.1431,1.4224 0.4844,2.0724 0.5459,1.0361 1.4619,1.7979 2.5801,2.1455 1.1211,0.3506 2.3086,0.2383 3.3418,-0.3057 2.1406,-1.125 2.9668,-3.7812 1.8418,-5.9229 -0.8955,-1.7012 -2.7578,-2.5693 -4.5586,-2.291 l -6.3461,-12.0725 -0.0543,-0.1033 h 0.001 l -0.903,-1.7171 -0.6439,-1.2243 -1.7956,-0.5165 -1.0703,-0.3079 -0.5038,-0.1449 -1.4315,-0.4117 -2.7796,-0.7996 -1.4022,-0.4033 -4.4575,-1.2822 6.8875,-3.7044 1.7814,-0.9581 3.3311,-1.7916 0.8369,-0.4501 0.797,-0.4286 0.5341,-0.2872 0.1449,0.2757 2.0815,3.9596 1.0113,1.9238 6.0562,11.5206 c -0.4561,0.4805 -0.7988,1.0635 -1.001,1.7139 -0.3477,1.1191 -0.2393,2.3057 0.3057,3.3438 1.126,2.1397 3.7812,2.9629 5.9219,1.8399 2.1406,-1.125 2.9668,-3.7813 1.8418,-5.9229 -0.8945,-1.7002 -2.7588,-2.5693 -4.5586,-2.292 l -6.2969,-11.9785 5.8965,0.5166 1.7041,3.2412 c -0.4561,0.4805 -0.7988,1.0635 -1.001,1.7139 -0.3477,1.1191 -0.2393,2.3057 0.3057,3.3418 0.5449,1.0371 1.4609,1.7998 2.5801,2.1475 1.1182,0.3477 2.3037,0.2383 3.3418,-0.3057 1.0371,-0.5449 1.7998,-1.4609 2.1475,-2.5801 0.3477,-1.1182 0.2393,-2.3047 -0.3057,-3.3428 -0.8945,-1.7002 -2.7607,-2.5684 -4.5586,-2.292 l -2.4248,-4.6133 -8.9257,-0.7808 -0.3282,-0.0287 -0.8432,-1.6042 -0.5992,-1.14 0.8209,-0.4415 1.5147,-0.8146 13.5999,-7.3142 2.9844,0.1689 0.8594,1.6357 -3.4346,7.5088 0.9785,1.8623 c -1.252,1.3252 -1.5908,3.3525 -0.6963,5.0537 0.5449,1.0371 1.4619,1.7998 2.5801,2.1475 1.1172,0.3477 2.3066,0.2373 3.3418,-0.3057 2.1406,-1.125 2.9668,-3.7812 1.8418,-5.9219 -0.8955,-1.7021 -2.7588,-2.5713 -4.5586,-2.293 l -0.3311,-0.6289 1.9453,-4.2529 5.8037,11.0391 c -0.4561,0.4805 -0.7988,1.0625 -1.001,1.7139 -0.3477,1.1182 -0.2393,2.3047 0.3057,3.3418 1.125,2.1416 3.7822,2.9648 5.9219,1.8418 1.0371,-0.5449 1.7998,-1.4619 2.1475,-2.5801 0.3481,-1.1189 0.2397,-2.3054 -0.3052,-3.3415 z m -64.3515,25.3721 c 0.3672,-0.1934 0.7881,-0.2334 1.1826,-0.1084 0.3955,0.123 0.7197,0.3926 0.9121,0.7588 0.3975,0.7568 0.1055,1.6963 -0.6504,2.0938 -0.7549,0.3994 -1.6943,0.1055 -2.0938,-0.6504 -0.3984,-0.7569 -0.1064,-1.6964 0.6495,-2.0938 z m 3.1621,-8.3399 c 0.0908,-0.291 0.2817,-0.5221 0.5119,-0.7119 0.0818,-0.0675 0.1508,-0.1487 0.2469,-0.1992 h 0.001 c 0.2256,-0.1191 0.4707,-0.1797 0.7188,-0.1797 0.1543,0 0.3105,0.0234 0.4619,0.0713 0.1554,0.0483 0.2885,0.136 0.4182,0.2266 0.2004,0.14 0.3771,0.3103 0.4939,0.5332 0.1934,0.3662 0.2314,0.7852 0.1084,1.1807 -0.123,0.3955 -0.3926,0.7197 -0.7588,0.9121 -0.7598,0.4004 -1.6973,0.1055 -2.0938,-0.6504 -0.1934,-0.3673 -0.2315,-0.7872 -0.1084,-1.1827 z m 13.5459,-2.1279 c 0.7598,-0.4004 1.6963,-0.1055 2.0928,0.6504 0.3984,0.7568 0.1064,1.6963 -0.6494,2.0938 -0.7578,0.3994 -1.6973,0.1045 -2.0938,-0.6514 -0.3985,-0.7559 -0.1065,-1.6954 0.6504,-2.0928 z m 10.4619,7.1494 c -0.123,0.3955 -0.3916,0.7197 -0.7578,0.9121 -0.5139,0.2712 -1.1071,0.2173 -1.5617,-0.0767 -0.2166,-0.14 -0.4044,-0.3298 -0.532,-0.5737 -0.3661,-0.6955 -0.1441,-1.5401 0.4801,-1.9816 0.0551,-0.0389 0.1081,-0.0799 0.1693,-0.1121 0.7598,-0.4004 1.6982,-0.1045 2.0938,0.6514 0.1932,0.3661 0.2313,0.7851 0.1083,1.1806 z m 6.7822,1.3457 c 0.123,-0.3955 0.3926,-0.7188 0.7588,-0.9111 0.2295,-0.1211 0.4766,-0.1787 0.7197,-0.1787 0.5576,0 1.0977,0.3018 1.374,0.8281 0.3984,0.7568 0.1064,1.6963 -0.6514,2.0938 -0.7559,0.3994 -1.6953,0.1074 -2.0928,-0.6494 -0.1933,-0.3673 -0.2313,-0.7872 -0.1083,-1.1827 z m 4.585,-10.2402 c 0.123,-0.3955 0.3926,-0.7197 0.7588,-0.9121 h 0.001 c 0.2285,-0.1211 0.4756,-0.1787 0.7178,-0.1787 0.5576,0 1.0977,0.3018 1.375,0.8291 0.3984,0.7568 0.1064,1.6963 -0.6504,2.0938 -0.7559,0.3984 -1.6973,0.1064 -2.0938,-0.6494 -0.1934,-0.3673 -0.2315,-0.7872 -0.1084,-1.1827 z m 3.8134,-9.5381 c 0.123,-0.3955 0.3926,-0.7197 0.7588,-0.9121 h 0.001 c 0.2246,-0.1191 0.4707,-0.1787 0.7178,-0.1787 0.1553,0 0.3105,0.0234 0.4629,0.0703 0.3955,0.123 0.7197,0.3926 0.9121,0.7588 0.3984,0.7568 0.1064,1.6963 -0.6504,2.0938 -0.3682,0.1943 -0.7871,0.2334 -1.1826,0.1084 -0.3945,-0.123 -0.7188,-0.3926 -0.9111,-0.7598 -0.1934,-0.3663 -0.2315,-0.7852 -0.1085,-1.1807 z m 7.4707,-7.793 c 0.7588,-0.4004 1.6963,-0.1055 2.0928,0.6504 0.3984,0.7568 0.1064,1.6963 -0.6514,2.0938 -0.3662,0.1934 -0.7861,0.2334 -1.1807,0.1084 -0.3955,-0.123 -0.7197,-0.3926 -0.9121,-0.7598 -0.1934,-0.3652 -0.2314,-0.7852 -0.1084,-1.1807 0.123,-0.3955 0.3927,-0.7197 0.7598,-0.9121 z m 12.129,6.6719 c -0.123,0.3955 -0.3926,0.7197 -0.7588,0.9121 -0.7598,0.3994 -1.6982,0.1055 -2.0938,-0.6504 -0.3984,-0.7568 -0.1064,-1.6963 0.6504,-2.0938 h 0.001 c 0.2256,-0.1191 0.4707,-0.1797 0.7188,-0.1797 0.1543,0 0.3105,0.0234 0.4619,0.0713 0.3955,0.123 0.7197,0.3926 0.9121,0.7598 0.1933,0.3662 0.2314,0.7852 0.1084,1.1807 z"
   id="path21"
   style="fill:#ffffff;fill-opacity:1" />
	<path
   d="m 181.209,90.229 c -5.4873,-1.1982 -12.8066,0.7598 -17.8027,4.7568 -6.8135,5.451 -10.2477,13.3012 -10.3785,19.7282 -0.0624,2.9224 0.5574,5.5517 1.8531,7.5286 v 0.001 c 0.6461,0.986 2.2538,1.8039 4.1904,2.4106 l 0.008,-0.0126 1.3237,-2.2126 0.0496,-0.0829 0.022,-0.0367 -0.0138,0.007 0.0534,-0.1915 c -0.008,-0.002 -0.0165,-0.004 -0.0246,-0.007 l 0.004,-0.0146 c -0.6544,-0.1826 -1.1805,-0.3656 -1.618,-0.5394 -0.8448,-0.3356 -1.3217,-0.631 -1.5203,-0.7966 -0.0486,-0.0405 -0.085,-0.075 -0.1028,-0.0985 -0.2281,-0.3481 -0.4241,-0.728 -0.5974,-1.1284 -0.225,-0.5199 -0.3907,-1.0904 -0.5234,-1.6861 -0.1059,-0.4753 -0.1827,-0.9703 -0.23,-1.4858 -0.0181,-0.1971 -0.0491,-0.3859 -0.0587,-0.5882 -0.0145,-0.3177 -0.004,-0.6494 0.003,-0.9785 0.0107,-0.5436 0.0469,-1.0986 0.1149,-1.6677 0.6315,-5.2852 3.7164,-11.5161 9.2174,-15.9176 4.374,-3.5 10.7168,-5.2266 15.4277,-4.2002 2.6371,0.5743 4.5203,1.9444 5.5982,4.0685 l 0.008,-0.0042 2.5229,-1.2712 0.008,-0.0042 c -1.4596,-2.8925 -4.0647,-4.8205 -7.5343,-5.5769 z"
   id="path22"
   style="fill:#ffffff;fill-opacity:1" />
</g>
</svg>
