<?xml version="1.0" encoding="utf-8"?>
<!-- Generator: Adobe Illustrator 27.8.1, SVG Export Plug-In . SVG Version: 6.00 Build 0)  -->
<svg version="1.1" id="Layer_1" xmlns="http://www.w3.org/2000/svg" xmlns:xlink="http://www.w3.org/1999/xlink" x="0px" y="0px"
	 width="283.4646px" height="283.4646px" viewBox="0 0 283.4646 283.4646" style="enable-background:new 0 0 283.4646 283.4646;"
	 xml:space="preserve">
<path d="M105.4893,162.6902l1.8304-13.6922l5.3163-2.7948c-0.5984-0.8645-1.1618-1.6338-1.6886-2.3068l-6.2364,3.278
	l-2.2044,16.4899l0.4549,0.488c2.6603,2.8551,6.3406,4.365,10.0734,4.3641c2.183,0,4.3835-0.5153,6.4087-1.58
	c0.2401-0.1263,0.4629-0.2719,0.6924-0.41c-0.1609-1.0134-0.3394-2.0256-0.5413-3.035c-0.4595,0.3442-0.9421,0.666-1.4662,0.9415
	C113.8891,166.6626,108.8929,165.9486,105.4893,162.6902z"/>
<path d="M194.0329,136.5305c-0.4237,0.4471-0.9264,0.8319-1.5001,1.1339c-0.2048,0.1079-0.4139,0.1983-0.6248,0.2794
	c-2.2103,10.8244-11.5667,19.078-22.9085,19.5985c-0.2933,0.9422-0.5617,1.8914-0.803,2.8473
	c13.2412-0.1605,24.2438-9.7691,26.5737-22.3827c-0.1132-0.1696-0.2397-0.328-0.3358-0.511
	C194.2687,137.1812,194.1352,136.8587,194.0329,136.5305z"/>
<path d="M171.6208,150.9551c-0.5045,1.0076-0.9569,2.0349-1.3742,3.0743c8.8291-0.9969,16.0104-7.4533,18.1158-15.8999
	c-0.9571-0.2536-1.8479-0.7462-2.5716-1.4545C184.3409,143.8141,178.7449,149.4625,171.6208,150.9551z"/>
<path d="M82.014,158.0855c2.4616,4.6816,7.229,7.378,12.194,7.378c1.957,0,3.9462-0.4198,5.836-1.3024l0.6955-0.3254l2.3389-16.8231
	l-11.8296-5.9292l-4.6523-0.8774C80.7341,144.089,78.7021,151.7843,82.014,158.0855z M99.9982,148.6317l-1.844,13.2627
	c-5.1512,1.9969-11.028-0.1598-13.6367-5.1239c-2.6097-4.9651-1.055-11.0271,3.5098-14.1384L99.9982,148.6317z"/>
<path d="M95.1042,120.6383c0.0388-0.0204,0.0794-0.035,0.1183-0.055c-0.2854-0.9267-0.5627-1.8383-0.832-2.728
	c-0.1996,0.096-0.4043,0.1759-0.6014,0.2795c-4.9791,2.6175-8.3712,7.2886-9.4621,12.5769c0.636,1.2187,1.45,2.4014,2.4484,3.5909
	C86.8169,128.631,89.9616,123.3409,95.1042,120.6383z"/>
<path d="M102.3351,166.0694l-0.6965-0.6595l-0.8699,0.4043c-7.5426,3.4981-16.4831,0.4754-20.3523-6.887
	c-3.4645-6.5891-1.7526-14.543,3.7751-19.1747c-1.3981-0.2644-2.4887-0.465-3.4965-0.5648
	c-5.1671,5.5842-6.4992,13.9844-2.782,21.0546c4.4254,8.4193,14.4618,12.0372,23.1812,8.5119
	c3.3929,2.8951,7.6449,4.3991,11.9427,4.3991c2.6316,0,5.2781-0.5696,7.7566-1.7225c-0.1095-0.9895-0.2355-1.9828-0.372-2.977
	c-0.0472,0.0254-0.0896,0.0562-0.1371,0.0812C114.3859,171.6355,107.1726,170.6439,102.3351,166.0694z"/>
<path d="M107.6909,140.3723l-3.844,2.0201l-12.3158-6.2539c-0.0459-0.283-0.0798-0.5656-0.1037-0.8472
	c-0.0084-0.0985-0.0089-0.1962-0.0146-0.2945c-0.0105-0.1826-0.0223-0.3652-0.0238-0.5468c-0.001-0.1193,0.006-0.2373,0.0089-0.356
	c0.0038-0.1581,0.0058-0.3163,0.0164-0.4732c0.0088-0.1306,0.0251-0.2595,0.0387-0.3891c0.015-0.1431,0.0281-0.2865,0.0487-0.4284
	c0.0198-0.1373,0.0465-0.2728,0.0716-0.4088c0.0241-0.1306,0.0468-0.2614,0.0757-0.3906c0.0317-0.1425,0.0695-0.2829,0.107-0.4236
	c0.0319-0.1198,0.063-0.2398,0.0989-0.3582c0.0443-0.1461,0.0941-0.2899,0.1445-0.4337c0.0381-0.1085,0.0758-0.2169,0.1174-0.3241
	c0.0579-0.1496,0.1207-0.2968,0.1852-0.4435c0.0427-0.0972,0.0857-0.1941,0.1314-0.29c0.072-0.1514,0.1483-0.3004,0.2274-0.4483
	c0.0463-0.0864,0.0931-0.1723,0.1418-0.2575c0.0871-0.1527,0.1779-0.3029,0.2726-0.4514c0.0479-0.0751,0.0969-0.1495,0.1468-0.2234
	c0.1031-0.1532,0.2096-0.304,0.3208-0.4522c0.048-0.0639,0.0975-0.1268,0.147-0.1897c0.12-0.1528,0.2431-0.303,0.3718-0.4497
	c0.0463-0.0528,0.0942-0.1041,0.1417-0.1561c0.1382-0.1516,0.2794-0.3006,0.4269-0.4451c0.0424-0.0415,0.0867-0.0815,0.1299-0.1224
	c0.1574-0.1493,0.318-0.2957,0.4854-0.4365c0.0367-0.0308,0.0751-0.06,0.1121-0.0903c0.1791-0.1467,0.3615-0.29,0.5514-0.4267
	c0.0236-0.017,0.0484-0.0326,0.0721-0.0494c0.2063-0.1461,0.417-0.2875,0.6354-0.421c0.0001-0.0001,0.0002-0.0002,0.0003-0.0002
	c-0.2893-0.9421-0.5753-1.8701-0.853-2.7692c-2.2293,1.2155-4.0182,2.9871-5.2536,5.071c-0.0026,0.0043-0.0047,0.0088-0.0073,0.0132
	c-0.173,0.2925-0.3353,0.5909-0.4862,0.895c-0.0096,0.0194-0.0175,0.0396-0.027,0.0591c-0.142,0.2897-0.2755,0.5836-0.397,0.8826
	c-0.0168,0.0414-0.03,0.0842-0.0464,0.1257c-0.1102,0.279-0.2148,0.5604-0.3068,0.8461c-0.0219,0.0683-0.0381,0.1384-0.0589,0.2071
	c-0.0798,0.262-0.1572,0.5249-0.2214,0.7917c-0.0232,0.0966-0.0385,0.1953-0.0595,0.2925
	c-0.0527,0.2419-0.1059,0.4836-0.1456,0.7286c-0.0209,0.1295-0.0316,0.261-0.0488,0.3912c-0.0285,0.2159-0.0606,0.4313-0.0789,0.649
	c-0.0138,0.1647-0.0152,0.3311-0.0231,0.4967c-0.0089,0.1858-0.0236,0.3708-0.0248,0.5575
	c-0.0014,0.2119,0.0117,0.4249,0.0203,0.6376c0.0057,0.1424,0.0039,0.2843,0.0141,0.4269c0.0255,0.3561,0.0648,0.7129,0.1189,1.0696
	l2.4141,2.6312l12.7244,6.462l5.903-3.1033C109.0064,141.5962,108.3191,140.9188,107.6909,140.3723z"/>
<path d="M126.3642,140.0132l0.9653,5.0096l5.1484,2.4455C131.963,142.9635,130.7403,139.617,126.3642,140.0132z"/>
<path d="M159.6561,140.0221c-3.306,0.3508-4.3318,3.4357-4.7901,7.4462l5.1484-2.4455l0.6649-3.4508
	c-0.3313-0.3631-0.6345-0.7541-0.8692-1.2007C159.75,140.2571,159.7078,140.1385,159.6561,140.0221z"/>
<path d="M179.9175,117.9633l1.3957,2.6546c0.8478-0.8919,1.6583-1.857,2.4208-2.8805l-2.9033-0.8349
	C180.5368,117.265,180.2287,117.6154,179.9175,117.9633z"/>
<path d="M170.457,122.8988c0.0349,0.0102,0.0706,0.0143,0.1055,0.0251c1.2556,0.3902,2.2973,1.1945,3.0292,2.2631
	c1.0608-0.2736,2.1196-0.6419,3.1415-1.1277l-1.3286-2.5274C173.9656,122.201,172.2978,122.6616,170.457,122.8988z"/>
<path d="M185.4906,108.8777c-0.3976,1.029-0.8673,2.0581-1.4052,3.0766l2.7437,0.789c0.9579-1.8912,1.7218-3.8492,2.2431-5.7922
	L185.4906,108.8777z"/>
<path d="M108.701,119.6204c-3.6595-3.4578-6.5611-8.322-7.8935-12.928l-3.3773-2.1132c0.7686,4.8426,3.2844,10.1278,6.818,14.3967
	c0.6608,0.7983,1.3566,1.5595,2.0843,2.2766c0.1425,0.1405,0.2813,0.2865,0.4262,0.4234c1.6102,1.5216,3.5218,2.5216,5.4837,3.1668
	c0.042,0.0138,0.0841,0.0264,0.1261,0.0398l0.3795-0.1008l0.7425-1.2609l0.634-1.0767
	C111.9241,121.8638,110.0661,120.9107,108.701,119.6204z"/>
<path d="M133.7534,112.011c-0.3152-2.0015-0.9144-4.0747-1.8155-6.1319c-0.1062-0.2426-0.2172-0.4836-0.3316-0.7253
	c-0.8589-1.815-1.942-3.6022-3.263-5.2946c-1.3255-1.6983-2.8774-3.3031-4.671-4.738c-0.3784-0.3027-0.7769-0.5924-1.1856-0.8738
	c-0.2166-0.1484-0.4448-0.2891-0.6701-0.4317c-0.1865-0.1188-0.3713-0.239-0.5626-0.3531c-0.3134-0.1858-0.6356-0.364-0.9622-0.5377
	c-0.0992-0.0532-0.1976-0.1071-0.2979-0.1591c-0.3961-0.2037-0.7993-0.3997-1.2112-0.5843
	c-0.0177-0.0079-0.0352-0.016-0.0528-0.0239c-2.2848-1.0251-4.7447-1.7377-7.1367-2.0074l-0.0026,0.023
	c-0.8485-0.0977-1.6911-0.1333-2.5233-0.1222c-1.6158,0.0215-3.184,0.2472-4.6273,0.7384l3.3987,2.1409
	c0.3721-0.0388,0.7495-0.0645,1.1329-0.0733c0.9668-0.0222,1.9654,0.055,2.9701,0.2076c0.143,0.0215,0.2859,0.0427,0.4292,0.0676
	c0.3015,0.0526,0.603,0.1099,0.9045,0.1765c0.1012,0.0225,0.2022,0.0496,0.3034,0.0737c0.4963,0.1174,0.9899,0.2546,1.4801,0.4072
	c0.2253,0.0709,0.4505,0.1413,0.674,0.2194c0.2001,0.0693,0.399,0.1414,0.5969,0.2161c0.432,0.1646,0.8623,0.3343,1.2824,0.5238
	c0.0185,0.0083,0.0368,0.0165,0.0552,0.0248c0.3521,0.1601,0.6981,0.3272,1.0388,0.5042c0.0847,0.0437,0.1672,0.0893,0.2511,0.134
	c0.2851,0.1529,0.5671,0.3077,0.8419,0.4719c0.1632,0.0969,0.3189,0.1992,0.4777,0.2996c0.1991,0.1267,0.401,0.2502,0.5933,0.3826
	c0.3589,0.246,0.7061,0.4995,1.0349,0.7624c1.8745,1.4997,3.4518,3.2193,4.7642,5.0354c0.2969,0.4109,0.5826,0.8243,0.8506,1.2444
	c0.5804,0.9098,1.1065,1.8347,1.5508,2.7688c0.2319,0.4874,0.4386,0.9763,0.6333,1.4649c0.0128,0.0322,0.0289,0.0642,0.0415,0.0963
	c0.2069,0.5256,0.3899,1.0501,0.5536,1.5723c0.4251,1.3558,0.6938,2.6862,0.8271,3.9635c0.0916,0.8776,0.1241,1.7298,0.0774,2.5381
	c-0.1062,1.8359-0.5631,3.464-1.3878,4.7225c-0.0005,0.0007-0.0159,0.0201-0.0533,0.0549
	c-0.1716,0.1798-0.5476,0.4103-1.1086,0.6581c-0.3377,0.1492-0.7443,0.3035-1.2044,0.4558l-0.9319,1.4625l-1.2864,2.0187
	c0.7498-0.1445,1.492-0.3195,2.2018-0.5209c0.8586-0.2437,1.6675-0.5267,2.3752-0.8472l0.0027,0.0059
	c0.1215-0.0547,0.2208-0.1116,0.3338-0.1671c0.0726-0.0356,0.1453-0.0714,0.2144-0.1074c0.1456-0.0762,0.2877-0.1535,0.4212-0.2333
	c0.0147-0.0088,0.0272-0.0177,0.0417-0.0266c0.2391-0.1451,0.4524-0.2969,0.6463-0.4531c0.0726-0.0594,0.1458-0.1188,0.2107-0.1794
	c0.0618-0.0566,0.1206-0.1138,0.1759-0.1719c0.1202-0.1283,0.2331-0.2578,0.3212-0.3922
	C133.8666,119.7123,134.3839,116.0149,133.7534,112.011z"/>
<path d="M189.818,122.3512l-1.7739-3.3744l-0.1331-0.0383c-0.2177,0.7082-0.4357,1.417-0.6636,2.1548
	c-0.2879,0.9309-0.5843,1.8932-0.8841,2.8703c0.1275,0.1858,0.2506,0.3761,0.358,0.5803c0.4627,0.8796,0.6751,1.8255,0.6634,2.7558
	c0.3317-0.1559,0.6723-0.2696,1.0162-0.3577c0.0749-0.2371,0.1487-0.4621,0.2249-0.7122
	C189.0333,124.8922,189.4311,123.6042,189.818,122.3512z"/>
<path d="M184.0492,132.481c-0.4966,0.2324-1.0124,0.362-1.5309,0.4452c-0.7128,0.7912-1.4545,1.2316-2.3363,1.7472
	c-2.1713,1.2702-5.1443,3.0091-9.785,9.9205c-7.2387,10.7806-8.2752,24.1796-9.109,34.9466
	c-0.5845,7.5543-1.0891,14.078-3.4932,17.5507c-4.8609,7.0215-9.1636,16.2483-11.4011,21.3878l-1.734-5.1989l-0.8227-67.1788
	l-0.1544-8.2811l-0.0106-0.5692l-0.0318,1.7073l-0.1221,6.5476l-1.0304,67.6295l-1.8579,5.3447
	c-2.2366-5.1395-6.5393-14.3663-11.4011-21.3888c-2.4032-3.4727-2.9078-9.9964-3.4922-17.5498
	c-0.3364-4.3432-0.7134-9.1163-1.5095-13.9716c-1.1775-7.1812-3.2808-14.5441-7.5995-20.9759
	c-1.1079-1.65-2.1182-2.998-3.0478-4.1224c-0.6972-0.8433-1.347-1.5556-1.9555-2.1663c-1.9788-1.9855-3.5181-2.8922-4.7817-3.6318
	c-2.2122-1.2936-3.5477-2.0749-5.7395-9.2678c-0.1829-0.6005-0.3626-1.1856-0.5418-1.7685c-0.2655-0.8639-0.528-1.7152-0.784-2.5429
	c-0.019-0.0614-0.0367-0.1194-0.0556-0.1806c-0.1817-0.5885-0.3585-1.1626-0.5346-1.7352c-0.2827-0.919-0.558-1.8212-0.8234-2.7015
	c-1.4981-4.9683-2.6986-9.3472-3.3045-13.3816l-3.0964-1.9375c0.4663,4.8842,1.8731,10.1049,3.6976,16.1458
	c0.2657,0.8798,0.5386,1.7775,0.8208,2.6942c0.1775,0.5768,0.3537,1.1501,0.5368,1.7425c0.0198,0.0641,0.0382,0.1243,0.0581,0.1886
	c0.2552,0.8248,0.517,1.6735,0.7817,2.5348c0.1789,0.582,0.3585,1.1665,0.5411,1.766c2.3973,7.868,4.14,9.2025,7.0156,10.8839
	c1.0179,0.5956,2.1605,1.2645,3.5799,2.5737c0.6176,0.5696,1.2913,1.2703,2.0265,2.1294c0.9658,1.1288,2.04,2.5376,3.2591,4.3533
	c4.3578,6.4901,6.3382,14.1307,7.4141,21.5245c0.609,4.1854,0.9312,8.2927,1.2234,12.0652
	c0.6156,7.9625,1.1475,14.8398,3.9871,18.9408c6.775,9.787,12.6607,24.5381,12.7191,24.6862l1.5859,3.9988l2.3028-8.7466
	l2.3009,8.7476l1.5868-3.9997c0.0584-0.1481,5.9441-14.8992,12.7191-24.6862c2.8396-4.1011,3.3724-10.9783,3.9881-18.9418
	c0.8085-10.4367,1.8138-23.4247,8.6375-33.5887c4.2793-6.3737,6.8218-7.8612,8.8655-9.0564
	c1.1211-0.6557,2.0693-1.2638,2.9522-2.2222C184.2189,134.1242,184.039,133.3068,184.0492,132.481z"/>
<path d="M189.5376,113.5223l2.3893,0.6871l0.229,0.4357c0.4454-1.5303,0.8553-3.0065,1.2211-4.4366l-2.0043-3.8125
	C190.8956,108.6313,190.2705,110.9894,189.5376,113.5223z"/>
<path d="M129.7856,114.3814c-0.0004-0.0078,0.0002-0.015-0.0002-0.0229c-0.0239-0.4326-0.0679-0.8778-0.1295-1.3317
	c-0.0018-0.013-0.0019-0.025-0.0037-0.038c-0.0841-0.6104-0.2162-1.2421-0.3707-1.8813l-6.6083,10.3698l-0.977,1.5331
	l-1.8514,2.9053l-0.8825,1.3848l-1.2848,2.0161l0.6566,2.4723l-0.6379,0.1695l-1.7423,0.463l-1.4393,0.3825l-1.015-3.8195
	l1.3359-0.3549l0.6513-0.173l0.7046-1.1968l0.0847-0.1439l0.7728-1.3127l1.6113-2.7368l0.8317-1.4127l3.5405-6.0137l-12.8134-8.0178
	l-2.4102-1.5081l-2.3837-1.4916l-3.9483-2.4706l-0.3387-0.2119l-5.0469-3.158l-0.3548-0.222L76.2676,86.3775l-0.526,1.7875
	c-0.1968,0.6683-4.8161,16.4665-5.0771,25.5551c-0.1987,6.9611,2.3418,14.0946,5.5486,15.5762
	c1.3073,0.6059,2.3213,0.3858,2.9448,0.0906c0.6361,2.0009,1.5693,3.8819,2.8337,5.7103c-2.0028-0.2786-3.7845-0.3029-6.2919,0.1831
	c0.0916-0.8874-0.0321-1.8577-0.565-2.785c-0.1481-0.2572-0.3575-0.5952-0.6127-1.0072c-2.2551-3.6305-8.245-13.2743-5.6392-23.9907
	c3.9861-16.3945-1.8226-28.0742-5.494-33.4357c6.4136,1.0404,19.4357,1.3092,32.4733-9.409
	c6.0158-4.9445,13.401-5.7939,18.7248-5.7088c1.0963-1.0883,2.092-2.0029,3.0338-2.6915
	c-5.6302-0.4285-15.5556-0.3581-23.5549,6.2164c-16.6438,13.6845-33.65,8.0219-33.8195,7.9644l-5.6567-1.9784l4.178,4.2998
	c0.1247,0.1286,12.461,13.1273,7.3683,34.0748c-2.8863,11.8697,3.5585,22.245,5.984,26.1513
	c0.2348,0.377,0.4267,0.6868,0.5621,0.9225c0.6361,1.1076-0.3224,2.522-0.3263,2.5278l-2.297,3.2224l3.8195-1.0374
	c3.6732-0.9987,5.5577-1.0458,8.0928-0.6623c0.7955,0.1204,1.6533,0.282,2.6528,0.4714l4.7352,0.8923l-2.8727-3.1318
	c-0.9621-1.0489-1.775-2.103-2.4728-3.1752c-1.4162-2.1759-2.3191-4.4327-2.7563-6.9158l-1.1358-6.4516l-1.6258,6.3464
	c-0.0468,0.1822-0.2854,0.7179-0.5445,0.8407c-0.1403,0.0701-0.4072-0.0331-0.5514-0.0994
	c-1.4885-0.6887-4.103-6.1204-3.9082-12.9295c0.1997-6.9815,3.2292-18.5979,4.4547-23.038l12.688,7.9394l1.2204,0.7636l2.972,1.8597
	l1.2174,0.7618l0.3616,0.2262l0.8321,0.5207l3.1097,1.9459l1.7311,1.0833l1.8467,1.1556l2.3834,1.4914l2.4105,1.5084l10.481,6.5583
	l-2.8552,4.8494l-0.7795,1.3241l-1.0975,1.8641l-0.4256,0.7227l-0.4026,0.6838l-0.3202,0.0851l-0.8855,0.2353l-2.1309,0.5661
	c0.0009,0.001,0.0018,0.0023,0.0027,0.0032c-0.001-0.001-0.0019-0.0021-0.0029-0.0032l-0.2635,0.07l2.4684,9.2843l0.7251-0.1926
	l2.8861-0.7667l1.7977-0.4776l3.8755-1.0296l-1.0637-4.0056l1.6583-2.6021l0.9586-1.5042l2.0523-3.2203l1.0963-1.7204l3.3059-5.1874
	C129.8099,115.1752,129.8073,114.7846,129.7856,114.3814z"/>
<path d="M127.876,107.0699c-0.002-0.0043-0.0035-0.0087-0.0055-0.013c-0.3412-0.7359-0.7473-1.4698-1.1853-2.1992l-0.7803,1.1679
	l-11.9899-7.5527l-2.4057-1.5154l-2.3791-1.4987l-1.6631-1.0477l-1.7004-1.0712l-2.9349-1.8488l-1.3701-0.8631l-3.634-2.2893
	l-1.2406-0.7815l-2.4263-1.5285l-1.1936-0.7519l-8.2384-5.1899c3.4659-3.0324,12.611-10.8088,18.8122-14.0215
	c2.1954-1.1373,4.3846-1.8582,6.3475-2.2711c0.6494-0.6704,1.276-1.323,1.8628-1.9368c0.4413-0.4614,0.862-0.9009,1.2703-1.3241
	c-3.268,0.1426-7.2436,1.188-10.782,3.0208c-8.0716,4.1839-20.2919,15.209-20.8082,15.6765l-1.3823,1.2508l27.5739,17.3704
	l2.3784,1.4983l2.4064,1.5157l14.3193,9.0194l1.4316-2.1428C128.0635,107.5179,127.98,107.2945,127.876,107.0699z"/>
<path d="M188.1785,77.6475c-3.2915-4.7449-6.2178-7.4043-8.7983-9.75c-0.2146-0.1949-0.4156-0.3819-0.6246-0.5728
	c-0.719-0.657-1.4139-1.301-2.0528-1.9565l0.0015-0.0014c-0.8563-0.8767-1.658-1.7154-2.4109-2.5015
	c-3.5575-3.7211-5.9081-6.1788-8.0872-6.6455c-0.2325-0.05-0.4703-0.0857-0.7143-0.1088c-1.698-0.1604-3.7003,0.2991-6.3432,0.9047
	c-3.688,0.8465-8.7388,2.0047-15.6346,2.0047c-0.0003,0-0.0006,0-0.0009,0c-0.0004,0-0.0007,0-0.001,0
	c-5.4463,0-10.4104-1.0433-14.3995-1.881c-1.9009-0.4004-3.5254-0.7395-4.9239-0.9202c-0.6349-0.0821-1.2268-0.1341-1.7707-0.1398
	c-0.5798-0.006-1.11,0.0368-1.5952,0.1405c-0.2609,0.0559-0.5247,0.1439-0.7922,0.2556c-1.0588,0.4419-2.1899,1.3212-3.4912,2.54
	c-0.0973,0.0912-0.1901,0.1725-0.2895,0.2676c-0.3476,0.3325-0.7076,0.6879-1.0824,1.0661
	c-0.0663,0.0669-0.1395,0.1434-0.2067,0.2118c-0.6903,0.7011-1.4224,1.4641-2.2233,2.3015
	c-0.1769,0.1848-0.3659,0.3818-0.5483,0.5722c-0.5108,0.5335-1.0409,1.0841-1.597,1.6559
	c-0.0007,0.0001-0.0015,0.0003-0.0023,0.0005c-0.0907,0.0932-0.1753,0.1817-0.2672,0.2759
	c-0.8251,0.8465-1.7252,1.6648-2.6788,2.5308c-2.5805,2.3457-5.5067,5.005-8.7983,9.75c-0.5468,0.7886-1.0534,1.5638-1.5313,2.3309
	c-1,1.605-1.8495,3.168-2.5633,4.7079l2.4108,1.5186c0.6774-1.503,1.4991-3.0341,2.4777-4.6142
	c0.4739-0.7652,0.9821-1.5412,1.5305-2.332c0.0003-0.0005,0.0007-0.0009,0.001-0.0013c3.1071-4.479,5.9054-7.0233,8.3755-9.2674
	c0.9848-0.8952,1.9151-1.7417,2.8006-2.6477c0.864-0.8855,1.6735-1.732,2.4333-2.5269c0.0155-0.0162,0.0301-0.0314,0.0456-0.0476
	c0.3911-0.409,0.7727-0.8068,1.147-1.1951c0.7642-0.7926,1.4843-1.5227,2.154-2.1672c0.2993-0.288,0.5865-0.5545,0.8622-0.8009
	c0.0781-0.0699,0.156-0.1392,0.2321-0.2054c0.4996-0.4341,0.951-0.7786,1.3513-1.0242c0.1944-0.1193,0.3749-0.2107,0.5425-0.2771
	c0.0999-0.0396,0.2074-0.0945,0.2972-0.1137c0.1702-0.0362,0.3612-0.0589,0.571-0.0698c0.5457-0.0288,1.2302,0.0286,2.0019,0.1343
	c1.2947,0.1773,2.8533,0.5008,4.5488,0.857c4.1164,0.865,9.2389,1.9413,14.9791,1.9414c7.2147-0.0001,12.4465-1.1992,16.2658-2.0749
	c2.386-0.5473,4.2971-0.9813,5.5523-0.8254c0.0941,0.0117,0.1932,0.0187,0.2798,0.0373c1.3287,0.2844,3.7874,2.8551,6.6338,5.8321
	c0.7598,0.7939,1.5693,1.6404,2.4324,2.5259c0.655,0.6702,1.3444,1.3118,2.0524,1.9607c0.2491,0.2282,0.4919,0.4539,0.7482,0.6869
	c2.4704,2.2444,5.269,4.7888,8.3765,9.2688c3.7653,5.4288,5.6826,10.1256,6.3079,14.8701l2.6637-1.4024
	C194.0208,87.9468,191.9756,83.1226,188.1785,77.6475z"/>
<path d="M228.3708,111.0247c-0.5435-1.0345-1.4583-1.7953-2.5736-2.1421c-0.6497-0.2026-1.3229-0.2503-1.9745-0.1471
	l-9.0544-17.2225l-10.7183-0.9644c-0.9507-0.1958-1.9356-0.0565-2.7928,0.3955l-4.8845,2.5714l-1.3377,0.7043l-2.7123,1.4278
	l-1.3131,0.6913l-0.5286,0.2782l-1.2921,0.6803l-2.558,1.3467l-1.2493,0.6577l-28.0482,14.7661
	c-0.0068,0.0931-0.0224,0.1913-0.0275,0.2834c-0.0165,0.3024-0.0127,0.5909-0.0112,0.8809
	c0.0005,0.1305-0.0088,0.2681-0.0047,0.3959c0.0006,0.0181,0.0036,0.0343,0.0043,0.0524c0.02,0.5358,0.0809,1.0365,0.1624,1.5174
	l28.1612-14.8255l1.3861-0.7297l2.7696-1.4581l1.2001-0.6318l0.1782-0.0938l1.2318-0.6485l2.8524-1.5017l1.3954-0.7346
	l5.9428-3.1286c0.2883-0.152,0.6234-0.1938,0.9381-0.1208l1.6434,0.1666l-8.5088,4.5762l-1.4304,0.7693l-2.9289,1.5753
	l-1.0086,0.5425l-0.4429,0.2382l-1.0044,0.5402l-2.9174,1.5691l-1.512,0.8132l-27.4961,14.7881l-0.0045,0.0024
	c0.126,0.319,0.2686,0.6165,0.4309,0.8852c0.1103,0.0835,0.2611,0.1693,0.4227,0.2552c0.4277,0.2273,1.0189,0.4572,1.7456,0.6714
	l0.065-0.035l1.9897-1.0701l0.5338,1.016l-0.3625,0.6061l-0.7762,1.2976l-1.5272,2.5533l-0.7433,1.2427l-1.2538,2.0962
	l3.2964,6.2714c-1.2478,1.3219-1.5849,3.3442-0.6936,5.0421c0.7822,1.4865,2.3058,2.3379,3.8799,2.3379
	c0.6848,0,1.3803-0.1617,2.0281-0.5017c2.1333-1.1232,2.9574-3.7728,1.8362-5.9071c-0.8923-1.6969-2.746-2.5658-4.5482-2.2872
	l-2.5571-4.8657l0.9456-1.5816l0.7695-1.2869l1.2472-2.0859l1.0024,1.9064c-0.1094,0.1152-0.1899,0.2539-0.2858,0.3805
	c-0.3031,0.3996-0.5595,0.8357-0.7126,1.3291c-0.0007,0.0024-0.0007,0.0048-0.0015,0.0071c-0.3441,1.1132-0.236,2.294,0.3064,3.3263
	c0.5436,1.0345,1.4573,1.7953,2.5736,2.1421c1.1154,0.3468,2.2989,0.2367,3.3335-0.3049c1.0345-0.5435,1.7953-1.4583,2.1421-2.5736
	c0.3084-0.9928,0.2368-2.033-0.1607-2.9793c-0.0494-0.1178-0.084-0.2397-0.1442-0.3541c-0.1779-0.3386-0.408-0.6349-0.6595-0.91
	c-0.5168-0.5652-1.1639-0.9988-1.9141-1.2321c-0.6507-0.2026-1.3219-0.2504-1.9745-0.1471l-0.5563-1.0585l-0.7573-1.4407
	l-1.7753-3.3776l7.9508-4.2754l2.9641,5.6395l0.6546,1.2454l1.3316,2.5334l0.4405,0.8381
	c-0.2467,0.2613-0.4467,0.5557-0.6198,0.8639c-0.7025,1.2506-0.7896,2.8157-0.0737,4.1771
	c1.1232,2.1353,3.7728,2.9584,5.9081,1.8372c0.0735-0.0387,0.133-0.0926,0.2034-0.1349c1.7373-1.043,2.5166-3.1251,1.9355-5.0186
	c-0.0784-0.2555-0.1749-0.5086-0.3036-0.7537c-0.5435-1.0345-1.4573-1.7953-2.5736-2.1421
	c-0.617-0.1915-1.2528-0.2396-1.8751-0.1569c-0.0331,0.0044-0.0665,0.0046-0.0994,0.0098l-0.6502-1.2371l-1.378-2.6217
	l-0.6861-1.3053l-1.903-3.6206l4.0138,1.1548l1.4521,0.4178l2.8411,0.8174l1.4584,0.4195l2.2777,0.6553l0.6672,0.192l0.0322,0.0604
	h-0.001l1.3777,2.6212l0.9495,1.8065l0.7238,1.3771l-0.8259,1.96l-1.0824,2.5687c-0.7981-0.0655-1.5969,0.0948-2.3267,0.4642
	c-0.0193,0.0097-0.0397,0.0158-0.0589,0.0258h-0.001c-1.8058,0.9507-2.6576,2.9939-2.2013,4.8936
	c0.0827,0.3446,0.1939,0.6857,0.3661,1.0134c0.0924,0.1759,0.2098,0.3286,0.3218,0.4863c0.6006,0.8459,1.4548,1.4275,2.4098,1.6864
	c1.0296,0.2791,2.1599,0.1979,3.1765-0.3355c0.1257-0.0662,0.2338-0.1543,0.3512-0.2312c0.8475-0.555,1.4844-1.3628,1.789-2.3425
	c0.3468-1.1163,0.2387-2.2999-0.3049-3.3334c-0.2416-0.4588-0.5553-0.8631-0.9264-1.2021l1.017-2.4139l1.181,2.2469l1.3965,2.6568
	c-0.4539,0.4793-0.7959,1.0598-0.9985,1.7086c-0.0719,0.2315-0.1123,0.4667-0.1452,0.702
	c-0.0082,0.1895-0.0209,0.3777-0.0331,0.5661c-0.0059,0.7117,0.1428,1.4188,0.4832,2.0672
	c0.5445,1.0335,1.4583,1.7934,2.5736,2.1401c1.1183,0.3497,2.3028,0.2377,3.3334-0.3049c2.1353-1.1222,2.9594-3.7718,1.8372-5.908
	c-0.8933-1.6969-2.7509-2.5629-4.5472-2.2853l-6.3303-12.0423l-0.0541-0.103h0.001l-0.9008-1.7128l-0.6423-1.2212l-1.7911-0.5153
	l-1.0676-0.3071l-0.5025-0.1445l-1.4279-0.4107l-2.7727-0.7976l-1.3987-0.4023l-4.4463-1.279l6.8703-3.6951l1.7769-0.9557
	l3.3228-1.7871l0.8348-0.449l0.795-0.4276l0.5327-0.2865l0.1445,0.275l2.0763,3.9497l1.0088,1.919l6.0411,11.4918
	c-0.4549,0.4793-0.7968,1.0608-0.9985,1.7096c-0.3468,1.1163-0.2386,2.2999,0.3049,3.3354
	c1.1232,2.1343,3.7718,2.9555,5.9071,1.8352c2.1353-1.1222,2.9594-3.7718,1.8372-5.908c-0.8923-1.6959-2.7519-2.5629-4.5472-2.2863
	l-6.2811-11.9486l5.8817,0.5153l1.6998,3.2331c-0.4549,0.4793-0.7968,1.0608-0.9985,1.7096
	c-0.3468,1.1163-0.2387,2.2999,0.3049,3.3334c0.5435,1.0345,1.4573,1.7953,2.5736,2.1421c1.1154,0.3468,2.2979,0.2377,3.3334-0.3049
	c1.0345-0.5436,1.7953-1.4573,2.1421-2.5736c0.3468-1.1154,0.2387-2.2989-0.3049-3.3344c-0.8923-1.6959-2.7538-2.5619-4.5472-2.2863
	l-2.4187-4.6017l-8.9034-0.7789l-0.3274-0.0287l-0.8411-1.6002l-0.5977-1.1371l0.8189-0.4404l1.5109-0.8125l13.5659-7.2959
	l2.9769,0.1685l0.8572,1.6317l-3.426,7.49l0.9761,1.8577c-1.2488,1.3219-1.5868,3.3442-0.6945,5.0411
	c0.5436,1.0345,1.4583,1.7953,2.5736,2.1421c1.1144,0.3468,2.3009,0.2367,3.3335-0.3049c2.1353-1.1222,2.9594-3.7718,1.8372-5.9071
	c-0.8933-1.6979-2.7519-2.5649-4.5472-2.2872l-0.3302-0.6273l1.9404-4.2423l5.7892,11.0115
	c-0.4549,0.4793-0.7968,1.0598-0.9985,1.7096c-0.3468,1.1154-0.2387,2.2989,0.3049,3.3334
	c1.1222,2.1362,3.7728,2.9574,5.9071,1.8372c1.0345-0.5436,1.7953-1.4583,2.1421-2.5736
	C229.0225,113.2418,228.9143,112.0583,228.3708,111.0247z M164.1801,136.3334c0.3663-0.1929,0.7861-0.2328,1.1797-0.1081
	c0.3945,0.1227,0.7179,0.3916,0.9098,0.7569c0.3965,0.7549,0.1052,1.692-0.6488,2.0885c-0.753,0.3984-1.6901,0.1052-2.0885-0.6488
	C163.1349,137.6669,163.4261,136.7298,164.1801,136.3334z M167.3343,128.0144c0.0905-0.2903,0.281-0.5208,0.5106-0.7101
	c0.0816-0.0673,0.1504-0.1484,0.2463-0.1987h0.001c0.225-0.1188,0.4695-0.1792,0.7169-0.1792c0.1539,0,0.3098,0.0234,0.4608,0.0711
	c0.155,0.0482,0.2878,0.1356,0.4172,0.226c0.1999,0.1397,0.3761,0.3095,0.4927,0.5319c0.1929,0.3653,0.2309,0.7832,0.1081,1.1777
	c-0.1227,0.3945-0.3916,0.7179-0.7569,0.9098c-0.7579,0.3994-1.693,0.1052-2.0885-0.6488
	C167.2496,128.8278,167.2116,128.4089,167.3343,128.0144z M180.8463,125.8918c0.7579-0.3994,1.692-0.1052,2.0875,0.6488
	c0.3974,0.7549,0.1062,1.692-0.6478,2.0885c-0.7559,0.3984-1.693,0.1042-2.0885-0.6497
	C179.8001,127.2253,180.0914,126.2882,180.8463,125.8918z M191.2821,133.0233c-0.1227,0.3945-0.3906,0.7179-0.7559,0.9098
	c-0.5126,0.2705-1.1043,0.2167-1.5578-0.0765c-0.216-0.1397-0.4034-0.329-0.5307-0.5723c-0.3652-0.6938-0.1437-1.5362,0.4789-1.9767
	c0.0549-0.0388,0.1078-0.0797,0.1689-0.1118c0.7579-0.3994,1.694-0.1042,2.0885,0.6497
	C191.3668,132.2109,191.4048,132.6288,191.2821,133.0233z M198.0474,134.3657c0.1227-0.3945,0.3916-0.717,0.7569-0.9089
	c0.2289-0.1208,0.4754-0.1783,0.7179-0.1783c0.5562,0,1.0949,0.301,1.3706,0.826c0.3974,0.7549,0.1062,1.6921-0.6497,2.0885
	c-0.754,0.3984-1.6911,0.1072-2.0875-0.6478C197.9626,135.179,197.9246,134.7602,198.0474,134.3657z M202.6209,124.151
	c0.1227-0.3945,0.3916-0.7179,0.7569-0.9098h0.001c0.228-0.1208,0.4744-0.1783,0.716-0.1783c0.5562,0,1.0949,0.301,1.3716,0.827
	c0.3974,0.7549,0.1062,1.6921-0.6488,2.0885c-0.754,0.3974-1.693,0.1062-2.0885-0.6478
	C202.5361,124.9644,202.4981,124.5455,202.6209,124.151z M206.4248,114.6368c0.1227-0.3945,0.3916-0.7179,0.7569-0.9098h0.001
	c0.224-0.1188,0.4695-0.1783,0.716-0.1783c0.1549,0,0.3098,0.0234,0.4617,0.0701c0.3945,0.1227,0.7179,0.3916,0.9098,0.7569
	c0.3974,0.7549,0.1062,1.692-0.6488,2.0885c-0.3672,0.1938-0.7851,0.2328-1.1797,0.1081c-0.3935-0.1227-0.7169-0.3916-0.9089-0.7579
	C206.3401,115.4492,206.3021,115.0313,206.4248,114.6368z M213.8768,106.8633c0.7569-0.3994,1.692-0.1052,2.0875,0.6488
	c0.3974,0.7549,0.1062,1.692-0.6497,2.0885c-0.3653,0.1929-0.7842,0.2328-1.1777,0.1081c-0.3945-0.1227-0.7179-0.3916-0.9098-0.7579
	c-0.1929-0.3643-0.2309-0.7832-0.1081-1.1777C213.2417,107.3786,213.5106,107.0552,213.8768,106.8633z M225.9754,113.5185
	c-0.1227,0.3945-0.3916,0.7179-0.7569,0.9098c-0.7579,0.3984-1.694,0.1052-2.0885-0.6488c-0.3974-0.7549-0.1062-1.692,0.6488-2.0885
	h0.001c0.225-0.1188,0.4695-0.1792,0.7169-0.1792c0.1539,0,0.3098,0.0234,0.4608,0.0711c0.3945,0.1227,0.7179,0.3916,0.9098,0.7579
	C226.0602,112.7061,226.0982,113.124,225.9754,113.5185z"/>
<path d="M181.1103,90.3578c-5.4736-1.1953-12.7746,0.7579-17.7582,4.7449c-6.7965,5.4374-10.2221,13.268-10.3525,19.6789
	c-0.0623,2.9151,0.556,5.5378,1.8485,7.5098v0.001c0.6445,0.9836,2.2481,1.7994,4.1799,2.4046l0.0076-0.0126l1.3204-2.2071
	l0.0494-0.0827l0.0219-0.0366l-0.0138,0.0074l0.0533-0.191c-0.008-0.0023-0.0165-0.0044-0.0245-0.0066l0.0041-0.0146
	c-0.6527-0.1821-1.1775-0.3647-1.614-0.5381c-0.8427-0.3347-1.3184-0.6295-1.5165-0.7946
	c-0.0485-0.0404-0.0847-0.0748-0.1026-0.0983c-0.2276-0.3472-0.423-0.7261-0.5959-1.1255
	c-0.2244-0.5186-0.3898-1.0877-0.5221-1.6819c-0.1056-0.4742-0.1823-0.9678-0.2295-1.4821c-0.018-0.1966-0.049-0.385-0.0585-0.5867
	c-0.0145-0.317-0.0036-0.6477,0.0029-0.976c0.0107-0.5423,0.0468-1.0958,0.1146-1.6635c0.6299-5.2719,3.7071-11.4873,9.1944-15.8778
	c4.3631-3.4912,10.69-5.2135,15.3892-4.1897c2.6306,0.5729,4.509,1.9395,5.5842,4.0584l0.0083-0.0042l2.5166-1.268l0.0083-0.0042
	C187.1698,93.0354,184.5713,91.1123,181.1103,90.3578z"/>
<g>
	<g>
		<path d="M106.5279,80.989c-0.3987,0-0.752,0.0935-1.0508,0.2773c-0.0753,0.0474-0.1468,0.1-0.2143,0.1578v-2.4113h-1.3625v8.0365
			h1.3625v-3.3179c0-0.4922,0.0909-0.8676,0.2715-1.1163c0.1637-0.2286,0.387-0.3351,0.7001-0.3351
			c0.2624,0,0.4377,0.0747,0.5507,0.2338c0.1286,0.1805,0.1961,0.5001,0.1961,0.9235v3.612h1.3664v-3.612
			c0-0.7845-0.1455-1.3891-0.4351-1.7969C107.602,81.2078,107.1357,80.989,106.5279,80.989z"/>
	</g>
	<g>
		<path d="M114.0362,81.8904c-0.2143-0.3033-0.4975-0.5325-0.8403-0.6819c-0.3312-0.1455-0.7338-0.2195-1.1936-0.2195
			c-0.2883,0-0.5871,0.0331-0.8884,0.1c-0.2987,0.0656-0.6143,0.1643-0.9832,0.3124l-0.1182,0.0474v1.1904l0.1078,0.2682
			l0.2857-0.1714c0.2585-0.1559,0.5273-0.2754,0.7975-0.3552c0.2689-0.0799,0.5364-0.1201,0.7988-0.1201
			c0.378,0,0.6494,0.0747,0.804,0.2208c0.1273,0.1208,0.2026,0.3202,0.2247,0.6338h-0.8676c-0.8014,0-1.4261,0.1773-1.856,0.5267
			c-0.4442,0.363-0.6702,0.8923-0.6702,1.5735c0,0.5916,0.1831,1.0735,0.5429,1.432c0.3598,0.3598,0.8429,0.5423,1.4365,0.5423
			c0.4351,0,0.8131-0.0883,1.1261-0.2624c0.1039-0.0584,0.2026-0.1279,0.2961-0.2078v0.3299h1.3664v-3.3471
			c0-0.4955-0.026-0.8611-0.0792-1.1163C114.2725,82.317,114.1738,82.0832,114.0362,81.8904z M113.0374,84.3289
			c-0.0117,0.5072-0.1286,0.9066-0.3481,1.1878c-0.2169,0.2766-0.5091,0.4111-0.8936,0.4111c-0.2624,0-0.4572-0.0649-0.5962-0.1987
			c-0.1325-0.1279-0.2-0.3202-0.2-0.5715c0-0.2799,0.0844-0.4721,0.2663-0.6053c0.2039-0.1481,0.5273-0.2234,0.9611-0.2234H113.0374
			z"/>
	</g>
	<g>
		<path d="M120.0786,81.4403c-0.2559-0.152-0.5156-0.2663-0.7728-0.3396c-0.2585-0.074-0.526-0.1117-0.7962-0.1117
			c-0.8689,0-1.5625,0.2825-2.0599,0.8403c-0.4897,0.5501-0.7377,1.3099-0.7377,2.26c0,0.9501,0.2481,1.7099,0.7377,2.26
			c0.4988,0.5578,1.191,0.8403,2.0599,0.8403c0.2766,0,0.5481-0.0383,0.8079-0.1143c0.265-0.076,0.5208-0.1903,0.7975-0.3604
			l0.0896-0.0552v-1.6976l-0.4429,0.4474c-0.1714,0.1734-0.3598,0.3026-0.5611,0.3845c-0.2013,0.0825-0.4338,0.124-0.691,0.124
			c-0.4403,0-0.7819-0.15-1.0157-0.4455c-0.2481-0.3137-0.3741-0.7786-0.3741-1.3832c0-0.6072,0.1247-1.0735,0.3715-1.3858
			c0.239-0.302,0.5624-0.4429,1.0183-0.4429c0.2494,0,0.4728,0.0409,0.6637,0.1208c0.1961,0.0818,0.3974,0.2176,0.5949,0.4033
			l0.4364,0.4124v-1.5735l-0.0338-0.1279L120.0786,81.4403z"/>
	</g>
	<g>
		<polygon points="126.7066,81.1195 124.9467,81.1195 123.0971,82.9937 123.0971,79.0128 121.7061,79.0128 121.7061,87.0493 
			123.0971,87.0493 123.0971,84.7283 123.427,84.401 125.2298,87.0493 126.8949,87.0493 124.3947,83.447 		"/>
	</g>
	<g>
		<rect x="128.7972" y="85.0575" width="1.6742" height="1.9918"/>
	</g>
	<g>
		<path d="M134.5989,87.0876c0.3819,0,0.7144-0.0883,0.9884-0.2624c0.052-0.0331,0.1013-0.0688,0.1494-0.1085
			c-0.0156,0.426-0.1026,0.7475-0.2533,0.9358c-0.1546,0.1955-0.4221,0.2948-0.7936,0.2948c-0.1779,0-0.3806-0.0325-0.6014-0.0961
			c-0.2299-0.0669-0.4897-0.1721-0.8767-0.3624l-0.2715-0.1344v1.3469l0.0468,0.1507l0.1273,0.0442
			c0.2663,0.0916,0.5364,0.1611,0.8001,0.2078c0.2676,0.0481,0.5286,0.0714,0.7754,0.0714c0.7819,0,1.3897-0.2409,1.8041-0.7169
			c0.4039-0.4656,0.6092-1.1436,0.6092-2.0158V81.139h-1.3638v0.2117c-0.0533-0.0429-0.1091-0.0818-0.1676-0.1162
			c-0.2689-0.163-0.5962-0.2455-0.9728-0.2455c-0.6858,0-1.2404,0.2916-1.6482,0.8676c-0.3884,0.5462-0.5845,1.2813-0.5845,2.1846
			c0,0.8994,0.1961,1.6326,0.5845,2.1794C133.3585,86.796,133.9131,87.0876,134.5989,87.0876z M134.7963,85.8303
			c-0.3299,0-0.5624-0.1279-0.7325-0.4033c-0.1922-0.3039-0.2896-0.7702-0.2896-1.3858c0-0.6156,0.0961-1.0806,0.2857-1.382
			c0.1714-0.2721,0.4026-0.3987,0.726-0.3987c0.3039,0,0.5195,0.1253,0.6793,0.3929c0.1818,0.3052,0.2741,0.7722,0.2741,1.3878
			c0,0.613-0.0922,1.0806-0.2741,1.3904C135.3054,85.7037,135.0924,85.8303,134.7963,85.8303z"/>
	</g>
	<g>
		<path d="M140.9462,80.989c-0.3559,0-0.678,0.0831-0.9585,0.2487c-0.0572,0.0344-0.1117,0.0721-0.1637,0.1123v-2.3372h-1.3625
			v8.0365h1.3625v-0.2234c0.0546,0.0429,0.1104,0.0812,0.1688,0.1162c0.274,0.1643,0.591,0.2474,0.9442,0.2474
			c0.7066,0,1.2716-0.2929,1.6794-0.8715c0.3857-0.55,0.5806-1.3066,0.5806-2.2483c0-0.9313-0.1948-1.6781-0.5806-2.2203
			C142.2126,81.2786,141.6502,80.989,140.9462,80.989z M141.5125,85.518c-0.1611,0.2728-0.3845,0.4-0.7001,0.4
			c-0.3182,0-0.5442-0.1286-0.7079-0.4052c-0.1857-0.3111-0.2805-0.7897-0.2805-1.4235c0-0.6364,0.0948-1.1163,0.2805-1.4255
			c0.1637-0.2754,0.3884-0.4033,0.7079-0.4033c0.3156,0,0.539,0.1273,0.7001,0.3994c0.1831,0.3111,0.2766,0.7923,0.2766,1.4294
			C141.7892,84.7263,141.6956,85.2076,141.5125,85.518z"/>
	</g>
	<g>
		<path d="M146.5969,87.0876c0.3831,0,0.7157-0.0883,0.9897-0.263c0.052-0.0325,0.1013-0.0682,0.1481-0.1078
			c-0.0156,0.4319-0.1,0.7455-0.2533,0.9365c-0.1546,0.1948-0.4208,0.2942-0.7923,0.2942c-0.1779,0-0.3806-0.0325-0.6014-0.0961
			c-0.2299-0.0669-0.4897-0.1721-0.878-0.363l-0.2715-0.1318v1.3449l0.048,0.1507l0.1273,0.0442
			c0.2663,0.0916,0.5364,0.1611,0.7988,0.2078c0.2689,0.0481,0.5299,0.0714,0.7767,0.0714c0.7806,0,1.3871-0.2409,1.8041-0.7169
			c0.4039-0.4656,0.6092-1.1436,0.6092-2.0158V81.139h-1.3651v0.2104c-0.0533-0.0422-0.1091-0.0812-0.1662-0.1149
			c-0.2689-0.163-0.5962-0.2455-0.9741-0.2455c-0.6845,0-1.2391,0.2916-1.6469,0.8676c-0.3884,0.5475-0.5858,1.2826-0.5858,2.1846
			c0,0.8981,0.1974,1.6313,0.5858,2.1794C145.3565,86.796,145.9111,87.0876,146.5969,87.0876z M146.7956,85.8303
			c-0.3286,0-0.5624-0.1279-0.7338-0.4026c-0.1909-0.3052-0.2883-0.7715-0.2883-1.3865c0-0.6156,0.0961-1.0806,0.2857-1.382
			c0.1714-0.2721,0.4026-0.3987,0.726-0.3987c0.3039,0,0.5195,0.1253,0.6793,0.3929c0.1805,0.3039,0.2728,0.7702,0.2728,1.3878
			c0,0.615-0.0922,1.0826-0.274,1.391C147.3035,85.7037,147.0918,85.8303,146.7956,85.8303z"/>
	</g>
	<g>
		<path d="M151.0473,83.6509c-0.4442,0.363-0.6702,0.8923-0.6702,1.5735c0,0.5903,0.1831,1.0722,0.5442,1.4326
			c0.3611,0.3591,0.8442,0.5416,1.4365,0.5416c0.4338,0,0.8118-0.0883,1.1248-0.2624c0.1039-0.0578,0.2026-0.1273,0.2961-0.2072
			v0.3293h1.3677v-3.3471c0-0.4955-0.026-0.8611-0.0792-1.1176c-0.0558-0.2715-0.1546-0.5059-0.2896-0.6936
			c-0.2143-0.3033-0.4962-0.5332-0.8403-0.6825c-0.3312-0.1455-0.7338-0.2195-1.1936-0.2195c-0.2883,0-0.5871,0.0331-0.8884,0.1
			c-0.2987,0.0656-0.6143,0.1643-0.9819,0.3117l-0.1208,0.0468v1.1917l0.1078,0.2669l0.2844-0.1702
			c0.2637-0.1565,0.5325-0.276,0.8014-0.3552c0.2663-0.0799,0.5338-0.1201,0.7975-0.1201c0.3728,0,0.6507,0.0766,0.8027,0.2215
			c0.1286,0.1208,0.2039,0.3195,0.226,0.6332h-0.8676C152.1033,83.1242,151.4786,83.3015,151.0473,83.6509z M153.7775,84.338
			c-0.0104,0.5065-0.1273,0.9059-0.3468,1.1878c-0.2169,0.2766-0.5091,0.4111-0.8936,0.4111c-0.2624,0-0.4572-0.0649-0.5962-0.1987
			c-0.1325-0.1279-0.2-0.3202-0.2-0.5715c0-0.2805,0.0844-0.4728,0.2663-0.6053c0.2039-0.1481,0.5273-0.2234,0.9611-0.2234H153.7775
			z"/>
	</g>
	<g>
		<path d="M158.759,84.8504l-1.3404-3.7218h-1.4508l2.108,5.5233c-0.2637,0.7611-0.4104,0.9891-0.4754,1.0592
			c-0.0883,0.0955-0.2195,0.1442-0.3909,0.1442h-0.7611v1.2618h0.9404c0.3273,0,0.6195-0.0753,0.8702-0.2241
			c0.2507-0.1487,0.4598-0.3715,0.6221-0.6624c0.1156-0.2085,0.3208-0.7306,0.6286-1.5963
			c0.2104-0.5968,0.3896-1.0956,0.5351-1.4846l1.4833-4.0212h-1.4495L158.759,84.8504z"/>
	</g>
	<g>
		<rect x="162.4009" y="85.0575" width="1.6768" height="1.9918"/>
	</g>
	<g>
		<path d="M170.0978,81.441c-0.2546-0.152-0.513-0.2663-0.7715-0.3403c-0.2585-0.074-0.526-0.1117-0.7975-0.1117
			c-0.8689,0-1.5612,0.2825-2.0586,0.8403c-0.491,0.5494-0.739,1.3092-0.739,2.26c0,0.9507,0.2481,1.7106,0.739,2.26
			c0.4987,0.5578,1.191,0.8403,2.0586,0.8403c0.2766,0,0.5481-0.0383,0.8079-0.1143c0.2637-0.0753,0.5208-0.1896,0.7988-0.3604
			l0.0896-0.0552v-1.6976l-0.4429,0.4474c-0.174,0.174-0.3624,0.3033-0.5611,0.3845c-0.2013,0.0825-0.4351,0.124-0.6923,0.124
			c-0.4403,0-0.7819-0.15-1.0144-0.4455c-0.2481-0.3137-0.3741-0.7786-0.3741-1.3832c0-0.6072,0.1247-1.0735,0.3715-1.3858
			c0.2351-0.2981,0.5676-0.4429,1.017-0.4429c0.2494,0,0.4728,0.0409,0.665,0.1208c0.1948,0.0812,0.3949,0.2169,0.5949,0.4039
			l0.4364,0.4085v-1.5703l-0.0351-0.1279L170.0978,81.441z"/>
	</g>
	<g>
		<path d="M174.0177,80.989c-0.7923,0-1.4118,0.2786-1.8391,0.8293c-0.4104,0.5312-0.6182,1.2956-0.6182,2.271
			c0,0.9793,0.2078,1.7443,0.6182,2.2729c0.4273,0.5494,1.0469,0.8273,1.8391,0.8273c0.7975,0,1.4183-0.2779,1.8443-0.8273
			c0.4104-0.5299,0.6195-1.2943,0.6195-2.2729c0-0.9767-0.2091-1.7404-0.6221-2.271
			C175.4308,81.2676,174.8113,80.989,174.0177,80.989z M173.2644,82.6658c0.1727-0.2767,0.4117-0.4052,0.7533-0.4052
			c0.3442,0,0.5858,0.1292,0.7598,0.4046c0.1922,0.3091,0.2896,0.7877,0.2896,1.4242c0,0.6332-0.0987,1.1111-0.2909,1.4216
			c-0.1727,0.2773-0.4143,0.4072-0.7585,0.4072c-0.3416,0-0.5793-0.1292-0.752-0.4078c-0.1935-0.3078-0.2909-0.7858-0.2909-1.4209
			C172.9747,83.4509,173.0721,82.9723,173.2644,82.6658z"/>
	</g>
	<g>
		<path d="M183.3175,81.6358c-0.2411-0.4234-0.6707-0.6468-1.2435-0.6468c-0.3156,0-0.5918,0.0714-0.8212,0.213
			c-0.0964,0.0598-0.1856,0.1325-0.2674,0.2176c-0.0731-0.0818-0.1549-0.1526-0.2455-0.2117
			c-0.2236-0.1454-0.5027-0.2188-0.8256-0.2188c-0.263,0-0.5041,0.0597-0.7145,0.1786v-0.0481h-1.4466v5.9298h1.2077v-4.3532
			c0-0.3444,0.2792-0.6236,0.6237-0.6236s0.6236,0.2792,0.6236,0.6236v4.3532h0.965v-4.3441c0-0.3444,0.2792-0.6237,0.6237-0.6237
			s0.6236,0.2792,0.6236,0.6237v4.3441h1.2157v-3.3951C183.636,82.6735,183.5323,82.0131,183.3175,81.6358z"/>
	</g>
	<g>
		<path d="M135.1987,95.7878c0.3221-0.3656,0.5767-0.6611,0.752-0.8767c0.3182-0.3883,0.5546-0.7527,0.7014-1.0845
			c0.1507-0.3429,0.226-0.6903,0.226-1.0319c0-0.6825-0.2351-1.243-0.6988-1.6664c-0.4546-0.4195-1.0573-0.6319-1.7924-0.6319
			c-0.3182,0-0.6442,0.0435-0.9676,0.1292c-0.3169,0.0838-0.6468,0.2104-1.0183,0.3955l-0.1039,0.0526v1.2742l0.1078,0.2728
			l0.2883-0.1812c0.326-0.2052,0.6364-0.3598,0.9209-0.4585c0.2779-0.0961,0.5442-0.1455,0.791-0.1455
			c0.3182,0,0.5676,0.0896,0.7416,0.2669c0.174,0.1766,0.2624,0.4338,0.2624,0.7644c0,0.2169-0.0468,0.4338-0.139,0.6423
			c-0.0987,0.2215-0.3013,0.5325-0.5845,0.8955c-0.1624,0.2-0.4585,0.5436-0.8793,1.0215c-0.4403,0.5001-0.9443,1.0657-1.517,1.6989
			l-0.048,0.0539v1.1806h4.6823v-1.3397h-2.8263C134.5493,96.5191,134.9246,96.0982,135.1987,95.7878z"/>
	</g>
	<g>
		<path d="M140.7709,90.4964c-0.826,0-1.4586,0.3611-1.8807,1.0741c-0.3948,0.6669-0.5949,1.6528-0.5949,2.9302
			c0,1.2735,0.2,2.258,0.5949,2.925c0.4221,0.7131,1.0547,1.0741,1.8807,1.0741c0.8261,0,1.4599-0.3611,1.8833-1.0741
			c0.3961-0.6695,0.5975-1.6541,0.5975-2.925c0-1.2741-0.2013-2.26-0.5975-2.9302
			C142.2307,90.8575,141.5969,90.4964,140.7709,90.4964z M140.0422,96.6301c-0.1974-0.4578-0.2987-1.1748-0.2987-2.1294
			c0-0.9585,0.1013-1.6768,0.2987-2.1346c0.2247-0.5182,0.5234-0.5786,0.7286-0.5786c0.2065,0,0.5065,0.0604,0.7338,0.5793
			c0.1974,0.4546,0.2974,1.1722,0.2974,2.134c0,0.9579-0.1,1.6742-0.2974,2.1288c-0.226,0.5182-0.5273,0.5786-0.7338,0.5786
			C140.5656,97.2081,140.2669,97.1477,140.0422,96.6301z"/>
	</g>
	<g>
		<path d="M147.3234,95.7878c0.3221-0.3656,0.5767-0.6611,0.752-0.8767c0.3208-0.3935,0.5559-0.7579,0.7001-1.0839
			c0.1507-0.3422,0.2273-0.6897,0.2273-1.0326c0-0.6825-0.2351-1.243-0.6988-1.667c-0.4559-0.4189-1.0585-0.6312-1.7924-0.6312
			c-0.3182,0-0.6442,0.0435-0.9689,0.1292c-0.3195,0.0844-0.6481,0.2111-1.0183,0.3955l-0.1039,0.0526v1.2742l0.1091,0.274
			l0.2883-0.1831c0.3234-0.2039,0.6338-0.3578,0.9209-0.4578c0.2767-0.0961,0.5429-0.1455,0.791-0.1455
			c0.3169,0,0.565,0.0896,0.7403,0.2669c0.174,0.1766,0.2624,0.4338,0.2624,0.7644c0,0.2162-0.0468,0.4332-0.1377,0.6423
			c-0.0987,0.2215-0.3013,0.5325-0.5845,0.8955c-0.1624,0.2-0.4585,0.5436-0.8793,1.0215c-0.4403,0.5001-0.9442,1.065-1.5183,1.6989
			l-0.0481,0.0539v1.1806h4.6836v-1.3397h-2.8262C146.674,96.5191,147.0494,96.0982,147.3234,95.7878z"/>
	</g>
	<g>
		<path d="M154.4849,90.6269h-1.4794l-2.8678,4.8109v1.2014h2.9068v1.7203h1.4404v-1.7203h0.9144v-1.3105h-0.9144V90.6269z
			 M151.5859,95.3287l1.4586-2.5717v2.5717H151.5859z"/>
	</g>
</g>
</svg>
